<svg viewBox="0 0 1280 1139" xmlns="http://www.w3.org/2000/svg" xml:space="preserve" style="fill-rule:evenodd;clip-rule:evenodd;stroke-linejoin:round;stroke-miterlimit:2"><path d="m451.5 1030.9 8.4 5.5c8.8 5.9 19.5 10.7 28.2 12.9 4.2 1 13.8 1.2 43.3.9l37.8-.4 2.6-5.6c4.9-10.8 2.4-19.4-8.6-29-8.9-7.7-22.2-20.8-22.2-21.9 0-.5 5.1-.9 11.3-.9 19.7 0 33.2-5.7 47.8-20.3 6.9-6.9 9.4-10.3 12.8-17.1 12.2-25.1 10.6-52.5-4.6-76.3l-1.8-2.9 8.1-7.6c4.5-4.3 67.6-64.4 140.3-133.7 72.7-69.3 132.5-126.1 132.9-126.3.477-.159 7.271 20.086 10.039 29.406l-.317.102 10.266 31.994.189-.061 2.923 9.159c3.3 10.3 9 28.1 12.6 39.7 16 50.6 26.6 83.9 30.3 95.5l4 12.5 11.4 13.4c6.2 7.3 12.3 14.6 13.5 16.1l2.2 2.7-2.6 6.3c-6.3 15.8 1.2 33.3 17.6 40.8 4.5 2.1 7.1 2.6 13.6 2.6 12.3 0 22.1-5.3 28.3-15.2 12.9-20.5-.8-47.2-25.1-49l-6.8-.5-6.1-7.3c-5.3-6.3-7-9.3-11.3-20.6-8.6-22.2-25.9-66.9-35.4-91.5-4.9-12.8-11.5-31.2-14.6-41-2.543-8.038-5.489-17.152-7.183-22.432l.337-.108-9.356-29.155c.002-.002.003-.004.002-.005l-.005-.005-.907-2.829-.139.045c-4.67-13.619-22.894-72.333-22.449-72.511.4-.1 7.2-.7 15.2-1.2 15-.9 25.1-3.4 40.5-9.8 5.3-2.2 6.5-2.4 10.5-1.5 13.6 3.2 12.8 5.6-2.3 6.6-12.4.9-17.2 2-21.4 5.2-6.1 4.6-5.4 13.2 1.2 16 4.2 1.7 27.6 1.9 37.5.3 11.8-1.9 30.4-6.9 36.9-9.9 4.1-2 7.9-3 11-3 8.3-.1 18.1-1.9 23-4.5 6.6-3.3 10.9-8.9 17.1-22 2.8-6.1 6.4-12.7 8.1-14.7l2.9-3.7-2.1-4.6c-3.5-7.4-10.2-12.5-25.1-19.1-8.6-3.8-15.1-7.4-18.3-10.1-11-9.5-20.1-13.3-31.7-13.3-5 0-5.9-.5-7.5-4.1-.6-1.4-4.2-6.6-7.9-11.5-3.8-4.9-10-13.6-13.9-19.3-9-13.5-10.2-14.1-25.5-14.1-6.3 0-17.8.5-25.5 1-13.7 1-57 5.5-63.1 6.6-2.7.5-4.2-.3-11.9-6.5-7.9-6.3-9.6-8.4-18.6-22.3-15.7-24.2-21.5-36.7-24.4-52.3-.7-3.9-2.3-10.6-3.4-15-1.6-5.8-2.6-14.6-3.7-32.5-1.7-28.2-1.9-29.6-7-41-5-11.1-5.3-19.1-1.1-26.3 1.5-2.6 3-4.7 3.2-4.7.3 0 4.8 2.9 10 6.4 11.1 7.5 15 9 21.3 8.3 6-.7 10.3-5.2 12.6-13 2.2-7.7 5.2-10.8 15.4-16.1 4.8-2.5 9.8-5.2 11.2-6 1.4-.8 7.5-1.8 13.5-2.4 11.8-1 16.6-2.7 18.6-6.5 1.8-3.2 1.5-9.3-.9-16.9-2.5-7.9-2.1-9.9 3.6-19.7 4.6-7.9 5.9-11.2 6.5-17 .9-7.4 2.5-8.3 17.5-9.2 7.8-.4 14.4-1.4 16.7-2.3l3.7-1.6-.7-4.7c-2.9-19.8-19.4-52.5-36.9-73.5-13.7-16.4-24.9-26-36.3-31-2.6-1.1-7.5-3.8-11-5.9-20.7-12.7-29.4-15-48.8-13-3.8.4-20 5.5-44.5 14-21.2 7.3-39.3 13.7-40.2 14.2-2.6 1.4-4.8 6.3-4.8 10.8 0 2.4 1.6 8.1 4 14 2.2 5.4 4 10.8 4 12 0 1.1-1.3 3.5-2.8 5.3-1.5 1.8-4 5.2-5.5 7.5s-3.9 5-5.4 6c-3.7 2.5-12.1 2-21.2-1.1-7.3-2.5-8.1-2.6-33.5-2.6-28.7 0-41.2-.9-64.7-4.5-15.4-2.4-15.9-2.4-35.5-.9-41.7 3-55.8 5.5-79.4 13.9-5.2 1.9-17.4 5.9-27 9-28.2 9-31.8 10.8-60 30.4-4.7 3.2-17.7 11.9-29 19.3-26.3 17.3-37.8 26.5-52 41.8-6.3 6.8-17.4 18.5-24.7 26-14.5 15.1-22 25.6-24.7 34.6-2.8 9.6-8.2 26.2-12 36.9-1.9 5.5-4.1 13.5-4.7 17.8-1 7.1-.9 8.7 1.1 17.5 5.4 23.3 7.8 28.4 22.9 48.7 9.1 12.2 10.7 13.8 19.8 20.1 5.4 3.7 14.8 10.1 20.8 14.3 16.6 11.5 26.5 21.9 34.7 36.7 7.4 13.3 19.8 31.1 31.3 44.9 4.1 4.9 7.5 9.3 7.5 9.7 0 .9-8.3 22.3-33 84.8-9.4 23.9-19.2 48.9-21.7 55.5-2.6 6.6-4.8 12.2-5 12.4m0 0c0 1-15.9 40.5-43.3 110.1-9.4 23.9-21.6 55-27.2 69.2l-10 25.6-4.2.6c-6.2 1-13.9 4.9-18.6 9.6-9.8 9.8-12.2 24-6.1 36.4 9.1 18.5 31.7 24.3 49.4 12.5 4.8-3.1 11.2-11.6 12.3-16.2.4-1.7 1.3-2.7 2.5-2.7 1 0 25.8 2.7 55.1 6s54.1 6 55.1 6c.9 0 1.7.4 1.7.9s-3.4 5.5-7.6 11.2c-9.8 13.3-12.2 18.3-13.9 28.1-.8 4.3-2.6 12.2-4 17.5-5.9 22.1-3.9 30 9.2 36.5 5.8 2.8 7.2 3.1 23 4 20.9 1.1 45.3 19.6 51.8 25.7m24-170.9c.8 6.8 1.5 17.6 1.4 24l-.1 11.5-2.4-5.1c-3.7-7.8-4.7-14.6-3.5-23.9.6-4.4 1.3-10.6 1.6-13.8.4-3.2.8-5.7 1-5.5.3.2 1.1 6 2 12.8ZM330.818 703.518c.875-2.54-.284.743 0 0C331.183 702.56 346 657.1 346 657.1c0-.8 43-129.6 47.7-142.8l2.5-7.2 4.3 4.6c3.7 4.2 4.9 6.8 10.3 23.3 3.3 10.2 11.9 36.7 19.2 59 7.2 22.3 13.5 41.6 14.1 42.9 1.3 3.2.1 10.1-6.2 34.1-2.7 10.2-6 23.4-7.4 29.5-1.5 6-8 35.6-8.2 36.6l-2.6 15.2c-2.9 16.5-4.8 33.9-7.2 65.7-2.9 37.4-4.4 48.7-8.1 60.5-2.7 8.5-6.6 16.5-8 16.5-1.8 0-108-11.9-112.6-12.6-2.7-.4-3.9-1.2-4.4-2.7-.3-1.2-1.5-4.1-2.6-6.4l-2.1-4.1 24.6-73.4c7.253-21.812 26.068-76.472 31.518-92.282ZM496.5 798c1.4 4.7 6.4 20.2 11.1 34.5 4.7 14.2 8.3 26.4 8.2 27.1-.2.6-2.7 3.1-5.7 5.5s-7.6 7.2-10.3 10.7c-3.9 5.1-4.8 5.9-4.8 4 0-13.6-5.2-45.3-9.9-61.3-3.3-11-3.4-10.3 2.9-20.1 1.6-2.6 3.2-6 3.5-7.6.9-4.1 1.8-2.8 5 7.2Zm-181.982-95.849c5.03-9.887 12.729-24.611 18.109-35.188.818-1.608 1.582-3.12 2.276-4.504a400.82 400.82 0 0 0 1.474-2.973c1.083-2.209 1.863-3.875 2.223-4.786 7.7-19.5-63.1 190.6-69.1 207.2-.4 1.1-.9 1.1-2.4-.3-1.1-1-4.6-2.8-7.8-4.2-3.2-1.3-5.7-2.7-5.6-3.1.1-.5 4.9-12.7 10.6-27.3 5.8-14.6 15.5-39.1 21.5-54.5 4.192-10.584 14.368-40.204 24.5-61.853M862.6 526.5c1.3 4.4 14.9 47.4 16.3 51.6 1 2.9 22.2-17.5-223.4 216.4-35.8 34.1-65.8 62.6-66.7 63.3-1.3 1-2.2.9-5.4-.9-2.2-1.3-4.1-2.4-4.2-2.5-.3-.2 12-46 17.9-66.7l1-3.8 8.7.6c9 .7 30-.6 47.9-2.9 12.9-1.7 16.3-3.8 16.3-9.9 0-3.7-.6-4.7-5.8-9.7-3.2-3.1-8-6.9-10.7-8.5-2.8-1.5-8.1-4.8-12-7.2-3.8-2.4-13.3-7.6-21-11.5-34.5-17.4-47.9-27.7-54.8-41.8-3-6-3.2-7.3-3.2-16.5.1-8.3.5-11.4 2.9-18 3.2-9.3 10.6-23.5 18-35 9.2-14 36.2-49.3 55.4-72.3l18.6-22.2 5.1-.1c2.7 0 43-1.5 89.5-3.4 46.5-1.8 89.9-3.2 96.5-3.1l11.9.1 1.2 4ZM533.8 766c14.9 2.4 19.9 3.8 27.3 7.6 3 1.5 8.3 3.8 11.9 5 3.5 1.3 6.6 2.7 6.7 3.1.1.4-4 15.8-9 34.2l-9.2 33.3-11.2.4c-7.8.2-11.3 0-11.3-.8 0-.6-5.4-17.8-12.1-38.2-16-49.2-15.9-48.8-15.9-49.7 0-.4 2.3.1 5 1.2 2.8 1 10.7 2.8 17.8 3.9Zm-214.631-72.919c-.366.732 44.531-118.581 49.031-130.381 3.4-8.6 6.2-15.6 6.4-15.4.2.2-7.8 24.3-17.7 53.7-9.9 29.4-18.1 53.5-18.3 53.7m121.2-69.5 9 11.7-.9 4.4c-.8 4.6-3.8 11.7-4.9 11.7-.3 0-1.5-2.8-2.5-6.3-1-3.4-4-12.7-6.7-20.6-2.6-8-4.4-14.1-3.9-13.5.5.5 4.9 6.2 9.9 12.6Zm441.1-68.1c6.4 3.4 14.3 8 17.5 10.3l5.9 4.1-10.9 1.7c-6 .9-12.4 1.8-14.3 2l-3.4.3-3.2-9.5c-3.9-11.5-4.8-15-3.9-15 .4 0 5.9 2.8 12.3 6.1ZM507.5 420c8.1 1.7 17.9 2.3 52 3.5 40.1 1.4 47.9 2.1 60.4 5.5 2.2.6 4.1 1.3 4.1 1.6 0 .2-4.9 6.4-10.8 13.7-22.8 27.9-34.4 44-43.1 59.8-2.3 4.3-4.8 8-5.7 8.3-.9.3-4.9.6-8.9.6h-7.3l-7.7-15.3c-8.8-17.3-21.2-40-34.4-63.1-5-8.7-9.1-16-9.1-16.2 0-.5-.8-.7 10.5 1.6Zm229 20c3.1 2.9 38.7 19.8 79.2 37.5 32.6 14.3 36.3 16.2 37.2 18.7.6 1.5.7 2.8.3 2.8-.4 0-38.7 1.8-85.2 4s-85.8 4-87.3 4h-2.9l4-4.8c2.2-2.6 11-12.2 19.5-21.3l15.6-16.6 3.2-11.4c3.9-13.6 6.9-17.6 11.6-15.8 1.5.6 3.7 1.9 4.8 2.9ZM930 450.5c19.4 2.4 26.8 4.3 34.7 8.8l7.2 4-7.2 7.9c-7.7 8.6-11.7 11.3-15.1 10.4-3.8-1-32.9-16.7-46.6-25.3l-13.5-8.5 14.5.7c8 .3 19.6 1.3 26 2ZM646.8 267.9c1.1.7 25.2 65.1 25.2 67.4 0 .4-2-.6-4.6-2.3-9.9-6.9-27.5-14.2-60-24.9-18.1-5.9-36-12.4-39.8-14.3l-6.9-3.5 18.4-.7c26.1-.9 35.5-3.4 47.9-12.6 7.9-5.8 14.9-10 17-10 .8 0 2.1.4 2.8.9Z" style="fill-rule:nonzero" transform="matrix(.89661 0 0 .86593 58.089 67.23)"/><path d="M376.92 62.81c3.45-1.44 6.37-4.02 9.95-5.15 10.73.32 21.12 3.63 31.11 7.36 7.74 2.6 13.98 8.02 21.11 11.81 7.59 4.11 15.17 8.26 22.86 12.19 7.05 3.49 15.09 4.95 21.55 9.6 6.93 5.9 10.45 14.69 16.69 21.23 3.34 4.12 8.04 6.78 11.67 10.62 4.75 4.96 11.56 7.38 16.2 12.41 3.89 6.1 4.69 13.61 8.31 19.85 3.51 6.26 9.15 10.85 14.78 15.12-2.16-.21-4.32-.45-6.48-.65 5.07 5.96 11.56 10.51 16.9 16.17 3.81 7.39 3.67 16.14 5.97 24.02.93 5.6 6.21 8.68 9.83 12.54-2.91-.84-5.77-1.81-8.63-2.77 3.13 5.25 9.11 9.77 8.85 16.47.43 8.23-.84 16.5.14 24.71 1.98 7.97 6.29 15.09 9.36 22.66-2.05-1.68-4.09-3.36-6.11-5.03 1.73 7.45 3.86 14.8 5.88 22.18 3.48 11.23-9.28 19.98-7.24 31.23.75 4.38 2.1 8.61 3.29 12.88-1.27-1.07-2.53-2.16-3.78-3.25 1.31 3.88 2.6 7.81 2.69 11.96-3.15 9.64-10.65 17.17-13.95 26.77-1.94 7.41-1.83 15.13-2.49 22.72-1.39-2.19-2.7-4.43-4.01-6.65-1.97 9.77-3.5 19.67-6.43 29.21-3.68 8.22-12.67 11.91-18.51 18.24-6.2 8.68-9.48 18.92-13.63 28.62-4.2 9.25-14.93 11.23-22.85 16.12-10.39 5.36-13.97 17.27-21.58 25.35-6.25 4.24-14.38 4.22-21.33 6.75-12.23 2.58-16.01 17.79-28.05 20.81-8.61 2.03-17.61 2.29-26.05 5.11-3.8 1.75-6.96 4.58-10.47 6.82.45-1.95.95-3.9 1.44-5.83-7.2 3.73-14.28 7.75-21.69 11.05-8.32 1.4-16.85.68-25.25.98-8.75-1.08-16.08 4.34-23.87 7.28 1.71-2.39 3.45-4.74 5.16-7.13-6.96 2-13.72 4.93-20.91 6.03-8.9.17-16.24-5.48-24.44-8.01-4.61-1.93-9.49-.16-13.92 1.28.25-.72.5-1.43.76-2.14-5.07.38-10.41 2.04-15.38.3-10.3-3.43-18.4-11.42-28.69-14.81-5.99.03-11.99 1.28-17.98.27-8.83-4.39-13.37-13.92-21.44-19.28-5.76-2.58-12.57-1.97-18.16-4.98-8.52-5.78-12.73-15.8-20.55-22.3-7.62-3.83-17.46-5.64-22.37-13.35-3.19-8.2-6.92-16.24-11.9-23.52-3.04-3.18-7.49-4.49-10.9-7.2-14.64-13.15-10.68-36.99-26.02-49.72.94-.13 1.87-.25 2.81-.35-5.72-11.14-13.29-21.38-17.13-33.42-2.33-7.19-5.96-13.91-10.91-19.62 3.05.99 6.03 2.16 9.02 3.32-3.1-5.2-6.76-10.17-8.95-15.84-2.79-10.47.77-21.18.54-31.73-.4-7.16-4.27-13.16-7.82-19.09 3.39 1.98 6.79 3.96 10.18 5.95-2.07-4.84-5.35-9.46-4.96-14.98-.57-11.47 7.06-21 8.94-31.98 2.3-7.38.78-15.16-.24-22.6 3.05 3.86 5.93 7.86 8.91 11.78-.41-7.63-1.12-15.85 2.65-22.82 4.89-9.11 9.65-18.3 14.28-27.56 4.87-11.37 14.11-19.97 21.17-29.92 2.69-4.2 4.89-8.68 7.33-13.02.22 9.24 5.09 17.04 8.53 25.28 1.87 7.51 3.14 15.39 2.51 23.14-3.51 11.59-11.39 21.12-15.9 32.26-1.02 7.5-1.04 15.19-3.23 22.5-2.45 8.04-5.78 15.75-8.83 23.57-3.55-3.06-6.87-7.34-5.02-12.44 3.95-7.65 10.27-14.4 11.72-23.19 1.59-5.18 1.46-10.6 1.43-15.95.72.64 1.44 1.28 2.16 1.93-.49-4.95-2.46-10.79 1.81-14.7 5.73-7.27 12.22-14.35 14.77-23.49-5.49 9.89-13.18 18.17-20.79 26.45-2.44-5.38-5.73-10.56-6.64-16.47.89-4.09 4.54-6.96 6.27-10.7 4.25-7.49 5.28-16.09 5.84-24.51-4.65 6.54-9.13 13.21-13.18 20.14-1.19 2.18-2.49 4.55-2.24 7.12 1.7 13.23 10.11 24.71 10.53 38.22 1.52 14.51-8.86 26.02-16.07 37.45-5.36-4.8-11.92-10.42-10.83-18.46 1.9-12.51 8.39-23.69 10.97-36.02 1.47-6.05 2.38-12.24 2.79-18.46-5.31 8.35-8.74 17.67-12.42 26.8-3.45 8.72-6.44 17.91-6.85 27.27 6.33 12.31 15.9 22.78 21.55 35.52-.42-2.6-.89-5.18-1.34-7.77 5.58 7.12 6.86 16.69 5.87 25.46-1.87 8.72-3.58 17.47-5.39 26.21-3.14-2.79-5.77-6.22-7.12-10.22.45-7.87 5.3-14.51 6.86-22.13-4.75 7.24-8.91 14.96-10.79 23.5-6.08-4.28-13.02-8.44-15.35-16.01-5.39-16.14 1.12-33.11-.07-49.62-4.32 15.18-7.14 31.13-5.3 46.92-.1 4.73 4.34 7 7.14 9.97 6.64 5.65 12.81 11.81 19.42 17.5 3.64 3.05 8.37 5.15 10.62 9.55 7.5 13.09 7.86 28.53 8.11 43.2-3.58-3.39-9.35-6.06-9.37-11.66.2-10.9 1.83-22.17-2.68-32.47 2.66 13.03 1.38 26.2.68 39.33-4.88-2.12-9.75-4.3-14.41-6.89-3.48-1.89-5.13-5.7-7.11-8.92-5.99-10.35-7.5-22.42-8.8-34.11-.07-5.69-2.61-10.8-5.25-15.66-.16 16.08.62 32.52 5.86 47.87 1.15 2.93 2.11 6.47 5.2 7.94 12.06 6.56 26.44 10.55 35.07 21.94 7.86 8.43 7.02 20.55 8.36 31.27-9.99-2.53-22.07-4-28.14-13.49-5.74-10.99-6.15-25.47-17.16-33.24 4.83 11.25 9.37 22.62 13.13 34.28 1.26 3.06 2.2 7.13 5.85 8.13 11.47 4.18 24.23 4.73 34.83 11.21 12.25 6.83 13.81 22.18 21.45 32.85-8.76-.29-18.59 1.68-26.04-4.27-11.23-8.63-16.78-22.82-28.37-31.1 5.44 13.48 13.72 25.58 22.21 37.29 13.47.04 26.96-.47 40.41.53 8.9.29 17.88 4.63 22.71 12.29 3.77 5.35 6.23 11.48 9.36 17.22-10.45.6-21.4 2.38-31.54-1-8.83-4.81-14.72-13.32-22.45-19.52-4.48-2.63-9.58-4.04-14.68-4.87 6.12 8.57 12.56 17.05 20.39 24.15 3.06 2.84 7.54 3 11.42 3.63 16.19 1.2 32.55.72 48.61-1.75-1.52-.54-3.04-1.07-4.55-1.6 16.54-3.28 30.94 7.89 41.78 18.96-5.34.91-10.71 1.59-16.1 2.12-2.17-7.75-6.4-15.3-14.09-18.72 6.56 5.71 11.58 12.91 13.8 21.35-6.93 2.66-13.85 5.48-21.13 7.04-12.81-1.66-20.33-13.54-31.88-17.99-6.5-2.85-13.39-4.77-20.35-6.05 11.46 11.59 24.4 21.71 38.31 30.21 1.85 1.12 4.07 2.14 6.24 1.31 12.98-4.26 25.52-10.02 38.87-13.04 12.07-2.49 22.75 4.2 32.59 10.12.04.58.13 1.75.17 2.34-8.56 3.59-16.53 8.46-25.05 12.09-14.18 4.45-26.63-6.27-40.57-6.66 5.63 5.1 12.97 7.58 19.68 10.88 4.89 2.11 9.89 5.06 15.47 4.25 7.22-3.43 12.94-9.54 20.47-12.42 10.93-4.74 22.94-9.17 34.99-5.79 5.99 2.13 11.36 5.66 16.93 8.67-5.88 6.52-12.71 12.17-20.01 17.04-3.75 2.49-8.48 1.71-12.69 1.15-11.1-1.96-22.25-3.78-33.49-4.6 11.53 4.65 23.55 7.99 35.75 10.34 1.77-.92 4.79 1.89 6.68.34 13.58-9.37 25.84-22.68 43.09-24.73 9.08-2.44 18.65.2 26.22 5.41-4.94 6.19-8.72 13.86-15.32 18.36-14.4 2.1-29.45-1.89-43.53 3.25 14.66 1.59 29.56 3.21 44.26 1.42 7.92-6.6 12.96-16.29 21.24-22.66 7.41-5.98 15.92-11.29 25.56-12.43 7.59-.92 15.35-.87 22.93.25-.83 6.29-1.56 13.48-6.7 17.94-6.16 6.04-15.06 6.81-22.89 9.24-5.58 1.44-10.94 3.61-16.25 5.82 13.18-1.54 26.43-3.92 38.94-8.41 6.03-1.7 5.63-9.15 7.94-13.76 3.96-16.54 14.76-30.87 28.41-40.73 7.96-5.81 15.96-12.02 25.41-15.23-.61 5.34-4.08 9.79-6.03 14.7-4.98 1.55-10.05 2.92-14.71 5.32 6.37-.95 12.6-2.56 18.92-3.8-2.48 9.86-3.74 21.49-12.37 28.19-7.79 6.14-16.58 10.82-24.49 16.79 11.37-3.64 21.82-9.54 32.36-15.04 2.86-10.49 4.74-21.19 7.14-31.78 1.79-7.88 6.05-15.45 13.12-19.73 7.3-4.56 15.17-8.12 22.86-11.96-.42 7.66.7 15.99-2.65 23.14-10.16 13.45-23.77 23.76-34.66 36.58 11.24-6.53 21.92-14.07 31.73-22.6 5.5-3.92 4.36-11.44 5.66-17.24.77-11.32 2.73-22.5 5.76-33.42-1.62 2.54-3.2 5.12-4.95 7.58 3.73-19.53 11.75-39.47 27.66-52.21.01 5.86-.47 11.68-.79 17.53-8.91 7.32-17.87 15.21-22.25 26.19 7.21-10.8 16.68-19.66 27.01-27.43 1.32 9.68 4.72 20.44-.6 29.48-6.32 14.8-18.58 25.78-26.94 39.32 13.85-11.14 24.9-25.22 35.35-39.48-2.1-15.69-7.15-30.93-8.2-46.75 2.67-15.64 8.47-30.81 16.44-44.52 2.17 5.81 3.66 11.85 5.61 17.74-10.45 7.68-18.11 19.07-20.67 31.82 5.51-12.17 12.64-24 23.73-31.84 6.42 7.94 6.79 19.03 4.31 28.58-2.83 10.63-8.12 20.32-12.66 30.27 6.71-9.08 12.24-18.98 16.89-29.25 1.19-3.59 3.75-7.35 2.37-11.25-4.65-13.88-10.42-27.52-13.05-41.98.03 4.92.32 9.88.17 14.81-7.42-17.74-5.81-37.98 1.68-55.4l2.99-.2c2.03 4.51 6.58 8.82 4.81 14.21-3.28 5.2-7.27 10.07-9.15 16.02 4.31-6.27 8.76-12.49 14.25-17.81 12.37 8.48 9.16 25.1 10.39 38.02 2-7.54 3.45-15.21 4.56-22.92-10.39-12.72-20.52-25.85-27.56-40.76-5.74-15.04-8.73-31.17-8.32-47.29 4.38 4.06 8.53 8.39 13.31 12.02-4.36 14.14-5.37 30.05.37 43.95-1.84-14.91-5.26-31.15 2.5-45.01 5.59 4.62 12.45 8.72 15.77 15.38 1.6 14.59 2.18 29.36 5.64 43.7 1.31-14.93 3.09-30.58-1.14-45.11-9.08-9.91-20.76-17.08-29.64-27.2-8.07-11.66-9.14-26.52-6.55-40.15 6.06 2.34 11.87 5.29 17.81 7.94-10.29-8.45-22.61-13.87-33.11-22-9.1-7.55-10.08-19.87-14.22-30.19 10.97-.9 21.36 2.84 30.94 7.75-2.53-3.13-6.05-5.23-9.87-6.42-9.63-3.06-19.61-4.84-29.33-7.55-6-1.64-11.43-4.75-17.17-7.06 5.58 4.26 12.28 6.63 18.23 10.27-14.24-2-27.93-9.03-37.2-20.12-5.54-6.64-10.64-13.69-17.01-19.59 6.6.49 13.3 2.07 19.01 5.52 5.05 3.9 5.99 10.72 9.36 15.84-1.7-6.38-3.86-12.63-6.98-18.46 9.62-.74 19.36-1.35 28.91.52 8.65 5.09 15.31 12.78 23.13 18.97-4.8-6.78-9.62-13.82-16.28-18.91-19.85-6.88-43.12-2.87-61.18-14.93-8.29-8.15-15.65-17.4-25.93-23.22 10.49-2.37 21.41-4.55 32.2-2.96 13.87 4.89 24.4 15.72 36.37 23.86-6.47-8.13-15.42-13.7-24.05-19.24-5.46-3.32-11.05-7.01-17.66-7.39-18.81-1.61-37.49 6.43-56.24 2.26-13.31-1.62-23.66-10.65-34.35-17.85 7.14-2.12 14.56-3.61 21.17-7.2Zm-73.64 473.74c15.29-10.37 35.64-12.15 53.33-8.47-4.41 2.55-8.37 6.78-13.67 7.37-6.32-.73-12.34-3.45-18.8-3.19-7.14.41-13.91 2.85-20.86 4.29Zm61.28-11.03c14.05-7.25 29.69-10.43 45.08-13.39-3.35 4.7-6.17 10.13-10.63 13.84-8.02 1.54-16.39.09-24.47 1.49-8 .71-14.84 5.12-21.85 8.57 3.41-4.05 7.23-7.9 11.87-10.51Zm-100.86-1.13c8.22-1.93 16.62-3.58 25.13-3.03 8.01.48 15.5 3.54 22.88 6.42-3.74 2.03-7.56 4.22-11.83 4.83-3.82-.19-7.11-2.6-10.58-3.92-7.88-3.97-16.93-4.62-25.6-4.3Zm74.86-5.84c5.74-2.72 11.43-5.64 17.41-7.75 6.44.11 12.86.91 19.32.79-6.88 3.82-13.45 8.29-20.39 11.89-5.64-.78-10.98-3.05-16.34-4.93Zm-43.2-3.91c6.16-.72 13.08-5.02 18.83-1.04 4.26 2.32 8.48 4.75 12.49 7.49-5.86.56-11.63 2.27-17.54 2.24-5.23-1.63-9.4-5.54-13.78-8.69Zm-72.67-4.43c8.59-1.51 17.51-2.95 26.16-.98 8.49 1.57 16.24 5.58 24.09 8.99-.1.62-.29 1.86-.39 2.48-4.69.15-9.56 1.27-14.17-.13-6.8-2-12.27-7.13-19.27-8.59-5.43-.97-10.96-1.2-16.42-1.77Zm191.55 3.16c2.195-1.17 4.38-2.36 6.538-3.598a130.253 130.253 0 0 0 6.372-3.882c-4.56 2.01-9.05 4.3-12.91 7.48Zm-166.72-11.26c5.49.34 10.98 1 16.36 2.21 3.42 1.4 6 4.25 8.79 6.59-9.71 2.05-17.84-3.38-25.15-8.8Zm151.97-6.49c5.86-.48 11.71-1.24 17.54-2.07-4.92 5.14-8.88 11.32-14.52 15.68-6.91 1.07-14 .7-20.97 1.37 6.04-4.91 12.75-9.1 17.95-14.98Zm-137.53-4.82c14.45-10.37 33.83-8.64 50.27-4.73-7.19 2.03-15.16 4.03-19.07 10.99 4.73 6 11.53 9.36 18.16 12.78-17.61-1.62-37.36-4.54-49.36-19.04Zm44.26 6.4c12.54-9.84 28.53-13.79 44.14-15.09-6.15 4.77-15.3 7.42-17.33 15.82 9.31 4.5 19.58 5.91 29.47 8.53-14.67 3.38-30.05 3.45-44.85.93-4.56-.8-8.99-2.7-12.59-5.59-.12-1.59-.48-3.67 1.16-4.6Zm-75.84-24.81c14.29-1.31 29.56-.26 42.23 7.13-5.7 1.26-11.52 1.99-17.22 3.27-.27 2.31-1.79 4.98-.34 7.13 3.86 5.25 9.06 9.3 14.02 13.46-11.24-3.26-21.8-8.65-31.84-14.59-4.36-3.05-9.67-6.27-11.01-11.83.24-2.22 1.93-4.18 4.16-4.57Zm116.91 14.88c7.42-8.62 18.82-11.98 29.56-14.15-3.09 4.25-6.56 8.27-8.81 13.07-.04 3.75 4.07 4.97 7.04 5.67 6.67 1.26 13.47 1.75 20.16 2.98-11.32 2.81-22.31 7.82-34.24 7.24-5.14-.3-11.16.82-15.59-2.51-3.2-3.65-.95-9.15 1.88-12.3Zm-134.54-.49c4.58.66 9.13 1.59 13.55 3.01 3.15 2.71 5.6 6.18 8.28 9.37-9.24.35-15.73-6.52-21.83-12.38Zm221.89-13.03c6.56-.78 13.2-1.8 19.21-4.68-3.4 4.25-6.42 8.78-9.4 13.35-1.91 2.82-4.04 6.07-8.04 5.96-4.56 1.22-9.08 2.54-13.66 3.66 4.48-5.75 8.55-11.81 11.89-18.29Zm-54.32 1.54c7.97-8.29 18.19-14.03 28.55-18.81-3.82 6.19-8.17 12.32-8.44 19.91 8.36 1.48 16.89 1.25 25.34 1.13-9.45 9.18-22.76 13.92-35.8 14.31-4.19-.4-9.32-1.21-11.68-5.14-2.31-3.62-.77-8.52 2.03-11.4Zm-185.31 13.93c-.18.9.653 1.35 1.486 1.35.834 0 1.669-.45 1.494-1.35-.56-1.08-2.42-1.08-2.98 0Zm281.66-27.55c5.25-5 9.91-10.89 16.36-14.44-1.55 6.05-3.14 12.24-6.22 17.71-5.94 6.07-14.4 8.67-21.12 13.73-4.08 2.65-6.68 6.85-9.85 10.41 4.52-10.73 12.61-19.37 20.83-27.41Zm-282.95-9.96c3.07-2.29 7.32-1.96 10.92-1.32 12.72 3.53 25.08 9.22 35.03 18.04-6.84-1.01-17.01-4.9-21.3 2.73 1.33 6.75 7.29 11.37 10.8 17.04-12.79-6.93-26.68-14.11-34.76-26.71-1.39-2.83-4.11-7.46-.69-9.78Zm-36.85 5.06c15.98 2.86 29.29 14.22 38.11 27.39-4.83.53-10.88 1.94-14.37-2.59-2.87-4.29-5.02-9.02-8.12-13.15-4.21-5.1-10.23-8.02-15.62-11.65Zm17.74.15c5.39 1.86 10.93 3.67 15.74 6.79 3.65 3.57 6.12 8.16 8.98 12.36-5.38-1.7-10.91-3.47-15.43-6.96-3.38-3.84-6.48-7.92-9.29-12.19Zm237.73 17.53c-2.73-15.57 11.2-27.3 21.56-36.66-1.74 6.58-7.45 16.46.74 20.58 6.33.19 12.61-2.42 18.94-3.35-10.73 11.19-25.19 20.1-41.24 19.43Zm-248.71-54.11c16.62.95 29.95 12.97 39.7 25.5-5.32-.9-10.67-1.72-16.02-2.37-.09 3.53-1.72 7.16-.38 10.59.99 2.92 2.46 5.65 3.82 8.42-12.6-10.97-25.12-24.85-27.12-42.14Zm309.47 23.68c4.27-3.58 9.26-6.19 13.96-9.15-1.85 5.62-3.75 11.21-5.37 16.91-5.34 2.99-10.52 6.25-15.73 9.45 2.35-5.73 3.97-11.86 7.14-17.21Zm-357.47-26.08c5.42 2.47 10.61 5.45 15.37 9.04 9.2 7.41 14.81 18.13 23.19 26.34-3.37.36-7.1 2.84-10.17.68-8.36-6.83-9.49-18.58-16.6-26.38-3.75-3.45-8.05-6.23-11.79-9.68Zm320.57 34.68c.2-14.3 10.75-24.88 19.69-34.78-.57 6.54-5.22 16.05 2.42 19.88 7.84 3.41 14.56-3.26 21.13-6.59-7.64 10.26-19.07 17.37-31.14 21.25-3.88 1.84-8.07.46-12.1.24Zm-293.31-29.7c5.16 3.2 10.49 6.15 15.44 9.68 2.47 5.73 4.41 11.73 6.65 17.59-5.32-4.6-11.63-7.78-17.26-11.89-2.28-4.83-3.24-10.26-4.83-15.38ZM462.99 412c3.03-6.07 6.03-12.24 10.2-17.63-.13 6.14-3.56 14.49 2.74 18.73 6.42 4.31 13.11-2.08 19.15-4.34-6.81 7.6-13.62 15.52-22.36 20.97-3.52 2.03-9.34 3.73-11.82-.66-2.1-5.55-.57-11.96 2.09-17.07Zm-328.04-38.45c16.51 11.73 29.25 28.09 39.47 45.41-5.47-2.81-10.88-5.83-16.77-7.72-.09 6.23 1.13 12.33 2.63 18.35-12.92-16.05-23.96-35.03-25.33-56.04ZM504.24 401c3.3-3.73 6.95-7.18 10.59-10.59-.03 5.77.57 11.6-.06 17.37-5.62 5.08-11.97 9.43-16.9 15.25 2.41-7.26 4.04-14.77 6.37-22.03ZM97.77 377.01c6.11 4.09 12.33 8.42 16.83 14.34 5.48 8.53 9.65 17.88 12.95 27.46-5.35-.2-11.23-2.41-14.03-7.19-2.25-6.57-2.16-13.83-4.96-20.24-2.83-5.33-6.92-9.8-10.79-14.37Zm19.62 2.03c4.85 4.99 9.57 10.14 15.09 14.41.71 5.3 1.53 10.61 2.38 15.9-4.96-4.72-10.15-9.25-14.54-14.5-1.64-5.07-2.33-10.49-2.93-15.81Zm364.54 28.75c-6.05-13.08-.56-27.57 4.27-40.07 1.11 5.21.06 11.36 3.06 16.06 3.03 1.86 7 5.52 10.76 3.28 3.91-2.42 6.88-6.05 10.25-9.12-5.71 12.7-14.32 25.62-28.34 29.85ZM130.7 385.33c-15.05-21.15-15.6-48.8-13.88-73.63 5.41 12.27 11.9 24.02 17.15 36.36 4.66 10.73 11.38 20.65 14.4 32.06-6.04-6.4-10.43-15.24-18.94-18.7-.58 8.01.18 15.98 1.27 23.91Zm393.92-26.03c2.28-4.18 5.8-7.49 9.18-10.78.62 4.03 1.15 8.09 1.7 12.14-6.21 6.36-10.69 14.07-15.43 21.52 1.46-7.64 2.69-15.33 4.55-22.88Zm-33.98 12.05c-2.03-8.94-.09-18.11 2.66-26.68 1.83 6.16 3.2 14.58 10.38 16.68 8.57 2.51 13.47-6.49 18.44-11.76-2.46 9.19-6.39 18.48-13.39 25.12-2.77 1.89-5.95 4.08-9.45 3.91-3.68-1.01-7.04-3.8-8.64-7.27Zm8.37-25.37c-5.37-8.8-3.96-19.5-3.3-29.28 2.27 7.06 3.98 17.12 12.23 19.51 2.67 1.15 5.79.58 8.05-1.21 6.03-4.08 7.48-11.49 10.77-17.5-.6 10.86-2.6 22.62-10.49 30.77-4.44 5.66-14.13 3.84-17.26-2.29Zm-395.28-24.44c2.51 4.34 5.57 8.48 7.21 13.26.77 5.42-.37 10.86-1.02 16.24-.57-.09-1.72-.26-2.29-.34-2-6.09-5.04-11.78-6.95-17.9.11-3.92 2-7.53 3.05-11.26Zm24.75-43.12c3.02 7.48 3.77 15.63 6 23.35 4.08 11.42 1.03 23.74 1.72 35.59-4.54-19.28-7.71-39.08-7.72-58.94Zm410.11 21.05c1.7 5.29 4.41 10.57 4.45 16.2-2.27 6.2-4.78 12.32-6.16 18.82-1.02-7.48-3.99-14.92-2.56-22.56 1.07-4.26 2.8-8.33 4.27-12.46ZM111 326.96c-3.21-26.96 1.69-55.19 15.56-78.68-.92 24.01-2.22 48.09.15 72.07-3.1-6.21-5.81-12.67-10.11-18.19-2.31 8.09-3.51 16.4-3.86 24.8H111Zm411.26-23.71c3.63-5.06 4.85-11.28 7.06-17 1.14 10.66 1.21 23.19-6.32 31.75-2.95 4.24-8.61 8.37-13.94 6.01-6.27-2.47-8.91-9.15-11.16-14.97-1.99-6.28-3.69-12.7-4.31-19.27 3.52 4.67 6.48 9.82 10.78 13.86 5.16 3.64 13.1 4.15 17.89-.38Zm-390.29-26.57c1.94 1.17 3.85 2.41 5.75 3.66.87 9.69 1.64 19.41 1.73 29.15-3.16-10.77-5.42-21.78-7.48-32.81Zm-34.15 7.59c7.25-23.76 15.25-48.08 31.44-67.47-2.7 8.51-8.13 15.8-11.42 24.07-5.25 13.63-10.38 27.77-10.27 42.59.93 5.97-2.75 10.91-5.21 15.96-1.66-4.97-4.58-9.84-4.54-15.15Zm425.1-31.91c3.23 9.41 3.97 19.76 1.98 29.51-1.38 5.44-3.69 11.27-8.69 14.35-5.22 2.56-10.82-.22-14.2-4.25-6.04-7.23-10.4-15.99-12.23-25.25 6.94 4.77 15.42 14.15 24.62 9.69 7.93-5.33 7.28-15.78 8.52-24.05ZM90.13 288.53c-.575.86-.618 1.339-.42 1.562.197.223.636.19 1.024.024.776-.331 1.351-1.191-.604-1.586Zm438.51-41.06c3.38 6.34 8.63 12.29 8.86 19.78.52 6.74.69 13.51.89 20.27-3.39-6.86-6.55-13.84-9.31-20.97-.76-6.33-.43-12.72-.44-19.08Zm-392.2 21.64c-1.32-13.02-.12-26.38 4.8-38.56.03 8.11-.2 16.23.18 24.35 4.95-5.87 8.03-12.93 11.3-19.79-3.77 11.8-6.37 25.58-16.28 34Zm373.2-43.37c5.78 10.18 7.98 22.06 6.86 33.67-.54 4.03-3.48 7.58-7.36 8.82-3.78 1.43-7.81-.56-11.05-2.37-8.54-5.5-14.11-14.34-17.54-23.72 6.07 4.18 13.41 10.26 21.28 6.72 10.21-3.33 7.78-14.96 7.81-23.12Zm-379.04-.11c5.43-8.04 9.36-17.24 16.5-24.02-6.64 14.42-9.52 30.13-12.9 45.53-1 5.61-1.07 11.34-1.45 17.03-.55-.2-1.65-.58-2.2-.78-1-6.56-1.99-13.12-2.98-19.67-4.65 6.86-8.75 14.07-13.52 20.86 2.83-13.95 8.84-27.05 16.55-38.95Zm390.65-18.74c5.61 1.77 11.11 3.91 16.59 6.06.09 6.98-.12 13.99.53 20.95 1.07 7.94 4.77 15.05 7.58 22.44-8.11-8.9-13.53-19.74-18.99-30.34-3.08-5.96-4.53-12.56-5.71-19.11Zm-13.28-4.3c3.83 3.82 8.71 6.76 11.97 11.13 1.94 9.65 4.28 19.2 6.67 28.75-3.61-5.98-7.12-12.09-11.79-17.31-2.08-2.82-5.01-5.22-6.15-8.64-.53-4.63-.65-9.28-.7-13.93Zm-11.53-1.16c7.11 9.46 12.84 21.57 9.65 33.62-2.04 6.28-9.96 7.84-15.52 5.53-10.59-4.34-18.48-13.26-24.67-22.61 8.5 3.49 18.83 9.9 27.97 4.89 6.69-4.88 2.73-14.58 2.57-21.43Zm63.67 20a159.298 159.298 0 0 0 3.511 5.424 402.906 402.906 0 0 0 3.669 5.326c-.51-4.64-2.8-8.78-7.18-10.75Zm-80.69-46.96c8.59 8.96 14 20.96 14.34 33.41-.63 4.91-5.82 8.47-10.75 7.15-13.93-2.23-24.59-12.34-34.42-21.73 7.53 2.82 15.09 6.44 23.29 6.39 5.75-.16 11.51-5.55 9.95-11.69-.37-4.58-1.62-9.02-2.41-13.53Zm10.46-9.27c6.49 1.79 13.94 2.26 19.37 6.55 4.17 6.89 4.82 15.63 9.95 22.11 3.62 6.19 9.99 9.76 15.1 14.53-9.65-2.03-17.39-8.75-23.84-15.87-7.87-8.28-14.77-17.49-20.58-27.32Zm-27.86-11.47c6.21 5.75 11.57 12.72 14.47 20.71.36 4.8 2 10.62-1.22 14.83-2.22 3.19-6.57 3.84-10.16 3.56-11.58-1.51-22.09-7.59-30.84-15.08 8.82.72 18.43 2.92 26.42-2.06 7.38-5.62 3.77-14.85 1.33-21.96Zm-331.6 20.65c4.21-6.05 7.79-12.49 11.69-18.73-2.53 13.3-7.22 26.75-16.16 37.15-1.31-6.45.63-13.17 4.47-18.42ZM240.55 30.62c5.95-8.44 9.02-18.45 14.35-27.24 2.24 9.94 2.29 20.19-.53 29.99 5.92-3.29 11.76-6.75 17.12-10.91 3.97-3.88 7.09-8.6 11.41-12.14-1.09 8.6-3.74 16.88-6.02 25.22 13.06-.08 26.11.67 39.13 1.66 4.17.41 8.2-.99 12.27-1.63-6.58 9.46-17.11 14.68-25.77 21.89-11.01 8.73-24.19 13.99-37.2 18.93-8.9 3.51-18.63 3.67-27.76 6.29 15.27 3.16 32.36.14 46.13 8.68 6.04 5.36 9.87 13.95 7.8 22.04-3.94 12.03-14.93 19.71-25.46 25.67-7.24 3.99-14.2 8.68-22.09 11.29 8.99-8.82 19.51-16.31 26.53-26.95 3.68-5.6 3.2-14.25-2.81-18.04-3.89-1.68-8.6-2-12.51-.27-8.06 3.36-14.13 9.8-21.04 14.9-1.32-2.93-.37-7.58-3.4-9.75-2.74-2.01-5.91.4-8.64 1.25 2.39 1.55 5.88 2.27 7.57 4.86 2.36 4.02.62 9.54-2.89 12.3-4.65 2.01-10.24.72-14.69 3.39-9.83 6.29-16.24 17.04-27.05 21.94-6.29 3.34-14.62 3.81-20.54-.51-3.02-2.61.74-5.68 1.45-8.46.04-3.05-.91-6.03-1.43-9.02-5.69 10.82-13.96 20.07-19.36 31.06-3.57 6.5-5.57 13.7-9.01 20.25 1.84-10.7 5.17-21.1 8.85-31.29 3.7-10.03 11.54-17.85 19.74-24.4 3.68 5.31 8.44 10.34 15.3 11.08-2.37-4.81-5.39-10.54-1.48-15.46 2.52 3.61 6.48 5.6 10.21 7.72 7.36-10.04 12.59-21.88 13.85-34.34.41-4.18-1.78-9.21-6.44-9.7-12.39-1.47-25.34-1.39-36.94-6.68-.75.69-1.51 1.38-2.27 2.06.33 3.48.78 6.94 1.24 10.41-4.35-5.49-7.79-11.6-10.89-17.84-1.9 3.95-1.73 8.31-.85 12.5-4.61-4.66-7.77-10.45-8-17.14-1.62-.8-3.25-1.59-4.87-2.38.35 15.77 8.46 30 16.98 42.77-11.43-8.09-20.32-19.47-25.83-32.3-2.65-9.34-3.75-19.04-6.01-28.47 17.17-9.68 34.55-21.92 54.93-22.69-.04.52-.14 1.58-.18 2.1-5.01 1.61-12.87 2.15-13.35 8.87-1.07 5.23 5.52 7.47 9.58 5.48 4.61-2.48 8.81-5.62 13.03-8.69-.45 3.1-.89 6.21-1.08 9.34 11.92-3.02 24-5.68 36.4-5.22 9.36 1.1 17.03-5.75 22.52-12.42Zm234.71 129.83c4.39 2.78 9.21 4.93 13.4 8.02 3.23 5.36 5.85 11.07 8.43 16.77-4.13-2.97-8.17-6.05-12.2-9.14-5.82-3.2-6.97-10.19-9.63-15.65Zm-356.13-13.37c6.63-9.2 16.5-15.28 25.94-21.23-1.92 3.75-4.09 7.41-5.35 11.46-1.19 7.5.88 15.31-1.87 22.58-2.3 5.76-6.53 10.4-10.37 15.17-4.76-3.15-6.79-8.67-8.74-13.77-1.75-4.51-2.36-9.96.39-14.21Zm318.52-17.03c8.77 6.35 16.43 14.97 20.03 25.31 3.22 8.13-4.3 18.97-13.51 16.4-11.32-.91-21.11-7.18-29.67-14.16 6.45.83 12.94 1.46 19.47 1.28 4.54-.2 9.39-2.97 10.25-7.75 1.63-7.78-3.35-14.52-6.57-21.08Zm-185.71 18.94c8.52-5.5 17.54-10.16 26.41-15.06-7.79 10.09-18.96 16.71-28.48 24.95-3.9 3.32-5.35 8.4-7.81 12.71 1.21-8.16 2.72-17.45 9.88-22.6Zm-4.34-36.29c3.43-3.12 7.39-6.38 12.45-5.74 4.84-.17 8.43 4.3 9.45 8.65 1.28 4.37-1.46 8.64-3.91 12.02-7.98 9.69-18.86 16.4-27.16 25.78-3.57 4.54-5.83 9.93-8.57 14.98-.3-6.23 1.3-12.51 4.93-17.61 7.92-10.78 20.45-16.81 28.94-27.05 3.08-4.26 3.54-11.27-1.05-14.63-5.42-.92-10.18 1.93-15.08 3.6Zm-32.14 20.81c3.73-1.65 6.9.66 9.99 2.21-.76 3.82-1.6 7.64-2.55 11.43-.99-2.7-1.96-5.32-3.09-7.94-10.38 5.01-17.99 14.58-28.9 18.63a58.404 58.404 0 0 1-12.59 2.08c6.89-3.93 14.91-6.16 20.41-12.17 5.6-4.62 9.46-11.97 16.73-14.24Zm197.8-17.14c7.49 4.61 15.29 9.73 19.96 17.4 2.21 4.96 5.15 12.49.53 16.96-5.12 4.19-12.37 4.29-18.62 4.12-9.95-2.11-19-6.91-28.28-10.89 1.04-1.07 2.1-2.13 3.15-3.19-9.14 1.01-18.62 2.91-25.58 9.38 1.02-2.91 1.41-6.69 4.58-8.15 11.49-7.19 24.66 2.15 36.89-1.12 6.79-1.2 10.99-7.45 14.7-12.68-2.31-4.02-4.84-7.92-7.33-11.83Zm-243-26.22c10.28 1.35 21.19.56 30.82 4.98-2.37 5.42-7.7 8.34-12.16 11.83-17.48 12.76-33.26 27.8-46.75 44.7-.62-10.15-.06-21.36 7.32-29.18 8.51-8.89 18.22-16.79 24.96-27.23-2.12-.96-4.24-1.89-6.37-2.79.72-.77 1.45-1.54 2.18-2.31Zm308.14 58c-.22.695-.207 1.165.035 1.407.243.243.715.258 1.415.043.43-1.4-.05-1.89-1.45-1.45Zm-38.73-23.32c4.96 2.41 10.18 4.55 14.58 7.93 3.52 4.74 6.26 10.01 8.95 15.26-9.61-5.77-18.18-13.18-23.53-23.19Zm-117.28 3.54c8.6-1.23 16.24-5.49 23.9-9.28-5.97 5.1-12.66 9.48-20.07 12.15-11.1 4.39-24.18 5.71-32.7 14.9 1.68-4.66 4.18-9.39 8.61-11.97 5.97-4.14 13.46-4.11 20.26-5.8Zm20.7 6.76c7.32-2.08 14.99-1.55 22.48-1.02-11.48 3.84-23.87 4.33-34.88 9.66 3.93-3.11 7.51-7.06 12.4-8.64Zm41.57-32.99c9.83 4.56 22.29 8.83 26.29 20.05 2.01 6.63-3.5 12.76-9.56 14.27-11.24 2.58-23.12 2.18-34.14-1.18 7.31-3.51 15.92-5.19 21.54-11.48 3.05-3.65 4.38-8.91 2.86-13.48-2.09-2.93-4.62-5.48-6.99-8.18Zm-218.9 28.48c9.7-11.95 22.03-21.4 34.56-30.19-.67 3.88-1.27 8.6-4.84 11.03-9.54 6.87-18.17 14.99-25.05 24.56-1.61-1.75-3.16-3.56-4.67-5.4Zm118.29-42.09c5.16.04 10.47-.6 15.46 1.15 4.64 1.13 8.8 3.94 13.61 4.43 3.2-1.34 5.66-4.33 9.3-4.68 9.95-.62 20.73.41 29.42 5.71 2.28 1.53 4.9 4.26 3.65 7.23-2.26 8.26-9.29 13.75-16.46 17.69-12.94 7.75-28.31 9.38-43 11.16 4.83-4.95 12.21-4.96 17.92-8.35 5.38-2.64 9.42-7.31 12.65-12.25 1.56-3.73.92-7.93 1.02-11.89-12.66 15.41-28.97 28.58-47.82 35.5 8.21-9 15.64-20.27 14.13-33.1-2.2-4.92-6.47-8.55-9.88-12.6Zm-59.48 45.67c2.76-4.16 5.77-8.14 8.31-12.44.45 2.8.85 5.59 1.3 8.39-3.18 1.42-6.38 2.76-9.61 4.05Zm129.44-40.93c7.47 1.51 15.69 1.99 22.06 6.63 5.41 3.55 11.52 8.71 10.93 15.96-3.2 7.26-9.44 14.18-17.66 15.4-12.28 1.57-24.9 2.29-37.01-.81 7.79-4.02 16.32-7.1 22.51-13.6 4.06-3.68 6.85-9.07 6.01-14.71-1.3-3.59-4.49-5.99-6.84-8.87Zm-109.3 34.99c-3.66-3.93.28-8.66 3.01-11.77.54 2.57.47 5.51 2.12 7.67 2.15 1.63 5.11 1.44 7.67 1.96-3 3.55-9.59 7.44-12.8 2.14Zm10.05-15.54c4.83-3.97 11.22 2.74 8.35 7.34-1.48 3.1-5.51 3.66-8.18 5.04-.97-3.92-5.1-9.75-.17-12.38Zm147.49-18.08c6.15-.2 12.99-3.02 18.82.25 7.28 3.29 11.54 10.56 17.23 15.81 5.77 6 13.74 8.82 21.07 12.34-22.31-1.4-39.25-16.94-57.12-28.4Zm-16.78 2.2c4.72-.14 9.5-.13 14.15.73 6.16 4.11 12.44 8.2 17.99 13.14-10.86-4.25-24.01-4.58-32.14-13.87Zm-69.87-1.73a33.643 33.643 0 0 0 4.776 1.824c1.634.486 3.304.851 4.994 1.096-3.14-1.33-6.41-2.33-9.77-2.92Zm38.82-23.32c8.8 7.56 19.13 13.5 30.45 16.33 7.72 1.65 15.63 2.03 23.49 2.75-24.36 5.44-50.1-.33-71.83-11.96 6.1-2 12.22-4.05 17.89-7.12Zm-35.11 12.06c6.1-1.18 12.63-3.13 18.81-1.1 4.93 1.67 9.69 3.76 14.48 5.8-11.24-.08-22.65-.79-33.29-4.7Zm-55.94-2.82c5.1-1.48 10.03-4.44 15.47-4.35 7.25 1.13 14.17 3.81 21.4 5.15-6.77 1.41-13.61 2.68-20.53 3-5.56-.68-10.87-2.73-16.34-3.8Zm32.1-16.44c17.52 9.01 37.96 10.48 56.97 5.88-12.13 7.09-26.6 9.1-40.44 9.51-11.09.54-22.08-1.95-32.5-5.58 5.37-3.19 10.87-6.18 15.97-9.81Zm26.65-19.51c5.16-5.49 13.57-1.4 19.87-1.01 17.07 2.74 34.26 9.56 51.68 6.11-12.91 9.99-28.7 15.12-44.21 19.45-17.67 4.81-36.52 1.08-52.81-6.57 9.25-4.8 18.01-10.65 25.47-17.98ZM201.1 56.22c-3.86 1.52-7.48 3.57-11.27 5.26 5.41.78 10.66 2.58 16.1 3.08 4.51-1.47 8.28-4.82 12.36-7.25-5.59-1.17-11.51-3.11-17.19-1.09Zm-69.4.93c1.36 1.1 2.74 2.19 4.14 3.25-.08-.74-.25-2.24-.33-2.98l-3.81-.27Z" style="fill:#090909;fill-rule:nonzero" transform="matrix(-.83628 0 0 .78554 1238.15 586.463)"/><path d="M376.92 62.81c3.45-1.44 6.37-4.02 9.95-5.15 10.73.32 21.12 3.63 31.11 7.36 7.74 2.6 13.98 8.02 21.11 11.81 7.59 4.11 15.17 8.26 22.86 12.19 7.05 3.49 15.09 4.95 21.55 9.6 6.93 5.9 10.45 14.69 16.69 21.23 3.34 4.12 8.04 6.78 11.67 10.62 4.75 4.96 11.56 7.38 16.2 12.41 3.89 6.1 4.69 13.61 8.31 19.85 3.51 6.26 9.15 10.85 14.78 15.12-2.16-.21-4.32-.45-6.48-.65 5.07 5.96 11.56 10.51 16.9 16.17 3.81 7.39 3.67 16.14 5.97 24.02.93 5.6 6.21 8.68 9.83 12.54-2.91-.84-5.77-1.81-8.63-2.77 3.13 5.25 9.11 9.77 8.85 16.47.43 8.23-.84 16.5.14 24.71 1.98 7.97 6.29 15.09 9.36 22.66-2.05-1.68-4.09-3.36-6.11-5.03 1.73 7.45 3.86 14.8 5.88 22.18 3.48 11.23-9.28 19.98-7.24 31.23.75 4.38 2.1 8.61 3.29 12.88-1.27-1.07-2.53-2.16-3.78-3.25 1.31 3.88 2.6 7.81 2.69 11.96-3.15 9.64-10.65 17.17-13.95 26.77-1.94 7.41-1.83 15.13-2.49 22.72-1.39-2.19-2.7-4.43-4.01-6.65-1.97 9.77-3.5 19.67-6.43 29.21-3.68 8.22-12.67 11.91-18.51 18.24-6.2 8.68-9.48 18.92-13.63 28.62-4.2 9.25-14.93 11.23-22.85 16.12-10.39 5.36-13.97 17.27-21.58 25.35-6.25 4.24-14.38 4.22-21.33 6.75-12.23 2.58-16.01 17.79-28.05 20.81-8.61 2.03-17.61 2.29-26.05 5.11-3.8 1.75-6.96 4.58-10.47 6.82.45-1.95.95-3.9 1.44-5.83-7.2 3.73-14.28 7.75-21.69 11.05-8.32 1.4-16.85.68-25.25.98-8.75-1.08-16.08 4.34-23.87 7.28 1.71-2.39 3.45-4.74 5.16-7.13-6.96 2-13.72 4.93-20.91 6.03-8.9.17-16.24-5.48-24.44-8.01-4.61-1.93-9.49-.16-13.92 1.28.25-.72.5-1.43.76-2.14-5.07.38-10.41 2.04-15.38.3-10.3-3.43-18.4-11.42-28.69-14.81-5.99.03-11.99 1.28-17.98.27-8.83-4.39-13.37-13.92-21.44-19.28-5.76-2.58-12.57-1.97-18.16-4.98-8.52-5.78-12.73-15.8-20.55-22.3-7.62-3.83-17.46-5.64-22.37-13.35-3.19-8.2-6.92-16.24-11.9-23.52-3.04-3.18-7.49-4.49-10.9-7.2-14.64-13.15-10.68-36.99-26.02-49.72.94-.13 1.87-.25 2.81-.35-5.72-11.14-13.29-21.38-17.13-33.42-2.33-7.19-5.96-13.91-10.91-19.62 3.05.99 6.03 2.16 9.02 3.32-3.1-5.2-6.76-10.17-8.95-15.84-2.79-10.47.77-21.18.54-31.73-.4-7.16-4.27-13.16-7.82-19.09 3.39 1.98 6.79 3.96 10.18 5.95-2.07-4.84-5.35-9.46-4.96-14.98-.57-11.47 7.06-21 8.94-31.98 2.3-7.38.78-15.16-.24-22.6 3.05 3.86 5.93 7.86 8.91 11.78-.41-7.63-1.12-15.85 2.65-22.82 4.89-9.11 9.65-18.3 14.28-27.56 4.87-11.37 14.11-19.97 21.17-29.92 2.69-4.2 4.89-8.68 7.33-13.02.22 9.24 5.09 17.04 8.53 25.28 1.87 7.51 3.14 15.39 2.51 23.14-3.51 11.59-11.39 21.12-15.9 32.26-1.02 7.5-1.04 15.19-3.23 22.5-2.45 8.04-5.78 15.75-8.83 23.57-3.55-3.06-6.87-7.34-5.02-12.44 3.95-7.65 10.27-14.4 11.72-23.19 1.59-5.18 1.46-10.6 1.43-15.95.72.64 1.44 1.28 2.16 1.93-.49-4.95-2.46-10.79 1.81-14.7 5.73-7.27 12.22-14.35 14.77-23.49-5.49 9.89-13.18 18.17-20.79 26.45-2.44-5.38-5.73-10.56-6.64-16.47.89-4.09 4.54-6.96 6.27-10.7 4.25-7.49 5.28-16.09 5.84-24.51-4.65 6.54-9.13 13.21-13.18 20.14-1.19 2.18-2.49 4.55-2.24 7.12 1.7 13.23 10.11 24.71 10.53 38.22 1.52 14.51-8.86 26.02-16.07 37.45-5.36-4.8-11.92-10.42-10.83-18.46 1.9-12.51 8.39-23.69 10.97-36.02 1.47-6.05 2.38-12.24 2.79-18.46-5.31 8.35-8.74 17.67-12.42 26.8-3.45 8.72-6.44 17.91-6.85 27.27 6.33 12.31 15.9 22.78 21.55 35.52-.42-2.6-.89-5.18-1.34-7.77 5.58 7.12 6.86 16.69 5.87 25.46-1.87 8.72-3.58 17.47-5.39 26.21-3.14-2.79-5.77-6.22-7.12-10.22.45-7.87 5.3-14.51 6.86-22.13-4.75 7.24-8.91 14.96-10.79 23.5-6.08-4.28-13.02-8.44-15.35-16.01-5.39-16.14 1.12-33.11-.07-49.62-4.32 15.18-7.14 31.13-5.3 46.92-.1 4.73 4.34 7 7.14 9.97 6.64 5.65 12.81 11.81 19.42 17.5 3.64 3.05 8.37 5.15 10.62 9.55 7.5 13.09 7.86 28.53 8.11 43.2-3.58-3.39-9.35-6.06-9.37-11.66.2-10.9 1.83-22.17-2.68-32.47 2.66 13.03 1.38 26.2.68 39.33-4.88-2.12-9.75-4.3-14.41-6.89-3.48-1.89-5.13-5.7-7.11-8.92-5.99-10.35-7.5-22.42-8.8-34.11-.07-5.69-2.61-10.8-5.25-15.66-.16 16.08.62 32.52 5.86 47.87 1.15 2.93 2.11 6.47 5.2 7.94 12.06 6.56 26.44 10.55 35.07 21.94 7.86 8.43 7.02 20.55 8.36 31.27-9.99-2.53-22.07-4-28.14-13.49-5.74-10.99-6.15-25.47-17.16-33.24 4.83 11.25 9.37 22.62 13.13 34.28 1.26 3.06 2.2 7.13 5.85 8.13 11.47 4.18 24.23 4.73 34.83 11.21 12.25 6.83 13.81 22.18 21.45 32.85-8.76-.29-18.59 1.68-26.04-4.27-11.23-8.63-16.78-22.82-28.37-31.1 5.44 13.48 13.72 25.58 22.21 37.29 13.47.04 26.96-.47 40.41.53 8.9.29 17.88 4.63 22.71 12.29 3.77 5.35 6.23 11.48 9.36 17.22-10.45.6-21.4 2.38-31.54-1-8.83-4.81-14.72-13.32-22.45-19.52-4.48-2.63-9.58-4.04-14.68-4.87 6.12 8.57 12.56 17.05 20.39 24.15 3.06 2.84 7.54 3 11.42 3.63 16.19 1.2 32.55.72 48.61-1.75-1.52-.54-3.04-1.07-4.55-1.6 16.54-3.28 30.94 7.89 41.78 18.96-5.34.91-10.71 1.59-16.1 2.12-2.17-7.75-6.4-15.3-14.09-18.72 6.56 5.71 11.58 12.91 13.8 21.35-6.93 2.66-13.85 5.48-21.13 7.04-12.81-1.66-20.33-13.54-31.88-17.99-6.5-2.85-13.39-4.77-20.35-6.05 11.46 11.59 24.4 21.71 38.31 30.21 1.85 1.12 4.07 2.14 6.24 1.31 12.98-4.26 25.52-10.02 38.87-13.04 12.07-2.49 22.75 4.2 32.59 10.12.04.58.13 1.75.17 2.34-8.56 3.59-16.53 8.46-25.05 12.09-14.18 4.45-26.63-6.27-40.57-6.66 5.63 5.1 12.97 7.58 19.68 10.88 4.89 2.11 9.89 5.06 15.47 4.25 7.22-3.43 12.94-9.54 20.47-12.42 10.93-4.74 22.94-9.17 34.99-5.79 5.99 2.13 11.36 5.66 16.93 8.67-5.88 6.52-12.71 12.17-20.01 17.04-3.75 2.49-8.48 1.71-12.69 1.15-11.1-1.96-22.25-3.78-33.49-4.6 11.53 4.65 23.55 7.99 35.75 10.34 1.77-.92 4.79 1.89 6.68.34 13.58-9.37 25.84-22.68 43.09-24.73 9.08-2.44 18.65.2 26.22 5.41-4.94 6.19-8.72 13.86-15.32 18.36-14.4 2.1-29.45-1.89-43.53 3.25 14.66 1.59 29.56 3.21 44.26 1.42 7.92-6.6 12.96-16.29 21.24-22.66 7.41-5.98 15.92-11.29 25.56-12.43 7.59-.92 15.35-.87 22.93.25-.83 6.29-1.56 13.48-6.7 17.94-6.16 6.04-15.06 6.81-22.89 9.24-5.58 1.44-10.94 3.61-16.25 5.82 13.18-1.54 26.43-3.92 38.94-8.41 6.03-1.7 5.63-9.15 7.94-13.76 3.96-16.54 14.76-30.87 28.41-40.73 7.96-5.81 15.96-12.02 25.41-15.23-.61 5.34-4.08 9.79-6.03 14.7-4.98 1.55-10.05 2.92-14.71 5.32 6.37-.95 12.6-2.56 18.92-3.8-2.48 9.86-3.74 21.49-12.37 28.19-7.79 6.14-16.58 10.82-24.49 16.79 11.37-3.64 21.82-9.54 32.36-15.04 2.86-10.49 4.74-21.19 7.14-31.78 1.79-7.88 6.05-15.45 13.12-19.73 7.3-4.56 15.17-8.12 22.86-11.96-.42 7.66.7 15.99-2.65 23.14-10.16 13.45-23.77 23.76-34.66 36.58 11.24-6.53 21.92-14.07 31.73-22.6 5.5-3.92 4.36-11.44 5.66-17.24.77-11.32 2.73-22.5 5.76-33.42-1.62 2.54-3.2 5.12-4.95 7.58 3.73-19.53 11.75-39.47 27.66-52.21.01 5.86-.47 11.68-.79 17.53-8.91 7.32-17.87 15.21-22.25 26.19 7.21-10.8 16.68-19.66 27.01-27.43 1.32 9.68 4.72 20.44-.6 29.48-6.32 14.8-18.58 25.78-26.94 39.32 13.85-11.14 24.9-25.22 35.35-39.48-2.1-15.69-7.15-30.93-8.2-46.75 2.67-15.64 8.47-30.81 16.44-44.52 2.17 5.81 3.66 11.85 5.61 17.74-10.45 7.68-18.11 19.07-20.67 31.82 5.51-12.17 12.64-24 23.73-31.84 6.42 7.94 6.79 19.03 4.31 28.58-2.83 10.63-8.12 20.32-12.66 30.27 6.71-9.08 12.24-18.98 16.89-29.25 1.19-3.59 3.75-7.35 2.37-11.25-4.65-13.88-10.42-27.52-13.05-41.98.03 4.92.32 9.88.17 14.81-7.42-17.74-5.81-37.98 1.68-55.4l2.99-.2c2.03 4.51 6.58 8.82 4.81 14.21-3.28 5.2-7.27 10.07-9.15 16.02 4.31-6.27 8.76-12.49 14.25-17.81 12.37 8.48 9.16 25.1 10.39 38.02 2-7.54 3.45-15.21 4.56-22.92-10.39-12.72-20.52-25.85-27.56-40.76-5.74-15.04-8.73-31.17-8.32-47.29 4.38 4.06 8.53 8.39 13.31 12.02-4.36 14.14-5.37 30.05.37 43.95-1.84-14.91-5.26-31.15 2.5-45.01 5.59 4.62 12.45 8.72 15.77 15.38 1.6 14.59 2.18 29.36 5.64 43.7 1.31-14.93 3.09-30.58-1.14-45.11-9.08-9.91-20.76-17.08-29.64-27.2-8.07-11.66-9.14-26.52-6.55-40.15 6.06 2.34 11.87 5.29 17.81 7.94-10.29-8.45-22.61-13.87-33.11-22-9.1-7.55-10.08-19.87-14.22-30.19 10.97-.9 21.36 2.84 30.94 7.75-2.53-3.13-6.05-5.23-9.87-6.42-9.63-3.06-19.61-4.84-29.33-7.55-6-1.64-11.43-4.75-17.17-7.06 5.58 4.26 12.28 6.63 18.23 10.27-14.24-2-27.93-9.03-37.2-20.12-5.54-6.64-10.64-13.69-17.01-19.59 6.6.49 13.3 2.07 19.01 5.52 5.05 3.9 5.99 10.72 9.36 15.84-1.7-6.38-3.86-12.63-6.98-18.46 9.62-.74 19.36-1.35 28.91.52 8.65 5.09 15.31 12.78 23.13 18.97-4.8-6.78-9.62-13.82-16.28-18.91-19.85-6.88-43.12-2.87-61.18-14.93-8.29-8.15-15.65-17.4-25.93-23.22 10.49-2.37 21.41-4.55 32.2-2.96 13.87 4.89 24.4 15.72 36.37 23.86-6.47-8.13-15.42-13.7-24.05-19.24-5.46-3.32-11.05-7.01-17.66-7.39-18.81-1.61-37.49 6.43-56.24 2.26-13.31-1.62-23.66-10.65-34.35-17.85 7.14-2.12 14.56-3.61 21.17-7.2Zm-73.64 473.74c15.29-10.37 35.64-12.15 53.33-8.47-4.41 2.55-8.37 6.78-13.67 7.37-6.32-.73-12.34-3.45-18.8-3.19-7.14.41-13.91 2.85-20.86 4.29Zm61.28-11.03c14.05-7.25 29.69-10.43 45.08-13.39-3.35 4.7-6.17 10.13-10.63 13.84-8.02 1.54-16.39.09-24.47 1.49-8 .71-14.84 5.12-21.85 8.57 3.41-4.05 7.23-7.9 11.87-10.51Zm-100.86-1.13c8.22-1.93 16.62-3.58 25.13-3.03 8.01.48 15.5 3.54 22.88 6.42-3.74 2.03-7.56 4.22-11.83 4.83-3.82-.19-7.11-2.6-10.58-3.92-7.88-3.97-16.93-4.62-25.6-4.3Zm74.86-5.84c5.74-2.72 11.43-5.64 17.41-7.75 6.44.11 12.86.91 19.32.79-6.88 3.82-13.45 8.29-20.39 11.89-5.64-.78-10.98-3.05-16.34-4.93Zm-43.2-3.91c6.16-.72 13.08-5.02 18.83-1.04 4.26 2.32 8.48 4.75 12.49 7.49-5.86.56-11.63 2.27-17.54 2.24-5.23-1.63-9.4-5.54-13.78-8.69Zm-72.67-4.43c8.59-1.51 17.51-2.95 26.16-.98 8.49 1.57 16.24 5.58 24.09 8.99-.1.62-.29 1.86-.39 2.48-4.69.15-9.56 1.27-14.17-.13-6.8-2-12.27-7.13-19.27-8.59-5.43-.97-10.96-1.2-16.42-1.77Zm191.55 3.16c2.195-1.17 4.38-2.36 6.538-3.598a130.253 130.253 0 0 0 6.372-3.882c-4.56 2.01-9.05 4.3-12.91 7.48Zm-166.72-11.26c5.49.34 10.98 1 16.36 2.21 3.42 1.4 6 4.25 8.79 6.59-9.71 2.05-17.84-3.38-25.15-8.8Zm151.97-6.49c5.86-.48 11.71-1.24 17.54-2.07-4.92 5.14-8.88 11.32-14.52 15.68-6.91 1.07-14 .7-20.97 1.37 6.04-4.91 12.75-9.1 17.95-14.98Zm-137.53-4.82c14.45-10.37 33.83-8.64 50.27-4.73-7.19 2.03-15.16 4.03-19.07 10.99 4.73 6 11.53 9.36 18.16 12.78-17.61-1.62-37.36-4.54-49.36-19.04Zm44.26 6.4c12.54-9.84 28.53-13.79 44.14-15.09-6.15 4.77-15.3 7.42-17.33 15.82 9.31 4.5 19.58 5.91 29.47 8.53-14.67 3.38-30.05 3.45-44.85.93-4.56-.8-8.99-2.7-12.59-5.59-.12-1.59-.48-3.67 1.16-4.6Zm-75.84-24.81c14.29-1.31 29.56-.26 42.23 7.13-5.7 1.26-11.52 1.99-17.22 3.27-.27 2.31-1.79 4.98-.34 7.13 3.86 5.25 9.06 9.3 14.02 13.46-11.24-3.26-21.8-8.65-31.84-14.59-4.36-3.05-9.67-6.27-11.01-11.83.24-2.22 1.93-4.18 4.16-4.57Zm116.91 14.88c7.42-8.62 18.82-11.98 29.56-14.15-3.09 4.25-6.56 8.27-8.81 13.07-.04 3.75 4.07 4.97 7.04 5.67 6.67 1.26 13.47 1.75 20.16 2.98-11.32 2.81-22.31 7.82-34.24 7.24-5.14-.3-11.16.82-15.59-2.51-3.2-3.65-.95-9.15 1.88-12.3Zm-134.54-.49c4.58.66 9.13 1.59 13.55 3.01 3.15 2.71 5.6 6.18 8.28 9.37-9.24.35-15.73-6.52-21.83-12.38Zm221.89-13.03c6.56-.78 13.2-1.8 19.21-4.68-3.4 4.25-6.42 8.78-9.4 13.35-1.91 2.82-4.04 6.07-8.04 5.96-4.56 1.22-9.08 2.54-13.66 3.66 4.48-5.75 8.55-11.81 11.89-18.29Zm-54.32 1.54c7.97-8.29 18.19-14.03 28.55-18.81-3.82 6.19-8.17 12.32-8.44 19.91 8.36 1.48 16.89 1.25 25.34 1.13-9.45 9.18-22.76 13.92-35.8 14.31-4.19-.4-9.32-1.21-11.68-5.14-2.31-3.62-.77-8.52 2.03-11.4Zm-185.31 13.93c-.18.9.653 1.35 1.486 1.35.834 0 1.669-.45 1.494-1.35-.56-1.08-2.42-1.08-2.98 0Zm281.66-27.55c5.25-5 9.91-10.89 16.36-14.44-1.55 6.05-3.14 12.24-6.22 17.71-5.94 6.07-14.4 8.67-21.12 13.73-4.08 2.65-6.68 6.85-9.85 10.41 4.52-10.73 12.61-19.37 20.83-27.41Zm-282.95-9.96c3.07-2.29 7.32-1.96 10.92-1.32 12.72 3.53 25.08 9.22 35.03 18.04-6.84-1.01-17.01-4.9-21.3 2.73 1.33 6.75 7.29 11.37 10.8 17.04-12.79-6.93-26.68-14.11-34.76-26.71-1.39-2.83-4.11-7.46-.69-9.78Zm-36.85 5.06c15.98 2.86 29.29 14.22 38.11 27.39-4.83.53-10.88 1.94-14.37-2.59-2.87-4.29-5.02-9.02-8.12-13.15-4.21-5.1-10.23-8.02-15.62-11.65Zm17.74.15c5.39 1.86 10.93 3.67 15.74 6.79 3.65 3.57 6.12 8.16 8.98 12.36-5.38-1.7-10.91-3.47-15.43-6.96-3.38-3.84-6.48-7.92-9.29-12.19Zm237.73 17.53c-2.73-15.57 11.2-27.3 21.56-36.66-1.74 6.58-7.45 16.46.74 20.58 6.33.19 12.61-2.42 18.94-3.35-10.73 11.19-25.19 20.1-41.24 19.43Zm-248.71-54.11c16.62.95 29.95 12.97 39.7 25.5-5.32-.9-10.67-1.72-16.02-2.37-.09 3.53-1.72 7.16-.38 10.59.99 2.92 2.46 5.65 3.82 8.42-12.6-10.97-25.12-24.85-27.12-42.14Zm309.47 23.68c4.27-3.58 9.26-6.19 13.96-9.15-1.85 5.62-3.75 11.21-5.37 16.91-5.34 2.99-10.52 6.25-15.73 9.45 2.35-5.73 3.97-11.86 7.14-17.21Zm-357.47-26.08c5.42 2.47 10.61 5.45 15.37 9.04 9.2 7.41 14.81 18.13 23.19 26.34-3.37.36-7.1 2.84-10.17.68-8.36-6.83-9.49-18.58-16.6-26.38-3.75-3.45-8.05-6.23-11.79-9.68Zm320.57 34.68c.2-14.3 10.75-24.88 19.69-34.78-.57 6.54-5.22 16.05 2.42 19.88 7.84 3.41 14.56-3.26 21.13-6.59-7.64 10.26-19.07 17.37-31.14 21.25-3.88 1.84-8.07.46-12.1.24Zm-293.31-29.7c5.16 3.2 10.49 6.15 15.44 9.68 2.47 5.73 4.41 11.73 6.65 17.59-5.32-4.6-11.63-7.78-17.26-11.89-2.28-4.83-3.24-10.26-4.83-15.38ZM462.99 412c3.03-6.07 6.03-12.24 10.2-17.63-.13 6.14-3.56 14.49 2.74 18.73 6.42 4.31 13.11-2.08 19.15-4.34-6.81 7.6-13.62 15.52-22.36 20.97-3.52 2.03-9.34 3.73-11.82-.66-2.1-5.55-.57-11.96 2.09-17.07Zm-328.04-38.45c16.51 11.73 29.25 28.09 39.47 45.41-5.47-2.81-10.88-5.83-16.77-7.72-.09 6.23 1.13 12.33 2.63 18.35-12.92-16.05-23.96-35.03-25.33-56.04ZM504.24 401c3.3-3.73 6.95-7.18 10.59-10.59-.03 5.77.57 11.6-.06 17.37-5.62 5.08-11.97 9.43-16.9 15.25 2.41-7.26 4.04-14.77 6.37-22.03ZM97.77 377.01c6.11 4.09 12.33 8.42 16.83 14.34 5.48 8.53 9.65 17.88 12.95 27.46-5.35-.2-11.23-2.41-14.03-7.19-2.25-6.57-2.16-13.83-4.96-20.24-2.83-5.33-6.92-9.8-10.79-14.37Zm19.62 2.03c4.85 4.99 9.57 10.14 15.09 14.41.71 5.3 1.53 10.61 2.38 15.9-4.96-4.72-10.15-9.25-14.54-14.5-1.64-5.07-2.33-10.49-2.93-15.81Zm364.54 28.75c-6.05-13.08-.56-27.57 4.27-40.07 1.11 5.21.06 11.36 3.06 16.06 3.03 1.86 7 5.52 10.76 3.28 3.91-2.42 6.88-6.05 10.25-9.12-5.71 12.7-14.32 25.62-28.34 29.85ZM130.7 385.33c-15.05-21.15-15.6-48.8-13.88-73.63 5.41 12.27 11.9 24.02 17.15 36.36 4.66 10.73 11.38 20.65 14.4 32.06-6.04-6.4-10.43-15.24-18.94-18.7-.58 8.01.18 15.98 1.27 23.91Zm393.92-26.03c2.28-4.18 5.8-7.49 9.18-10.78.62 4.03 1.15 8.09 1.7 12.14-6.21 6.36-10.69 14.07-15.43 21.52 1.46-7.64 2.69-15.33 4.55-22.88Zm-33.98 12.05c-2.03-8.94-.09-18.11 2.66-26.68 1.83 6.16 3.2 14.58 10.38 16.68 8.57 2.51 13.47-6.49 18.44-11.76-2.46 9.19-6.39 18.48-13.39 25.12-2.77 1.89-5.95 4.08-9.45 3.91-3.68-1.01-7.04-3.8-8.64-7.27Zm8.37-25.37c-5.37-8.8-3.96-19.5-3.3-29.28 2.27 7.06 3.98 17.12 12.23 19.51 2.67 1.15 5.79.58 8.05-1.21 6.03-4.08 7.48-11.49 10.77-17.5-.6 10.86-2.6 22.62-10.49 30.77-4.44 5.66-14.13 3.84-17.26-2.29Zm-395.28-24.44c2.51 4.34 5.57 8.48 7.21 13.26.77 5.42-.37 10.86-1.02 16.24-.57-.09-1.72-.26-2.29-.34-2-6.09-5.04-11.78-6.95-17.9.11-3.92 2-7.53 3.05-11.26Zm24.75-43.12c3.02 7.48 3.77 15.63 6 23.35 4.08 11.42 1.03 23.74 1.72 35.59-4.54-19.28-7.71-39.08-7.72-58.94Zm410.11 21.05c1.7 5.29 4.41 10.57 4.45 16.2-2.27 6.2-4.78 12.32-6.16 18.82-1.02-7.48-3.99-14.92-2.56-22.56 1.07-4.26 2.8-8.33 4.27-12.46ZM111 326.96c-3.21-26.96 1.69-55.19 15.56-78.68-.92 24.01-2.22 48.09.15 72.07-3.1-6.21-5.81-12.67-10.11-18.19-2.31 8.09-3.51 16.4-3.86 24.8H111Zm411.26-23.71c3.63-5.06 4.85-11.28 7.06-17 1.14 10.66 1.21 23.19-6.32 31.75-2.95 4.24-8.61 8.37-13.94 6.01-6.27-2.47-8.91-9.15-11.16-14.97-1.99-6.28-3.69-12.7-4.31-19.27 3.52 4.67 6.48 9.82 10.78 13.86 5.16 3.64 13.1 4.15 17.89-.38Zm-390.29-26.57c1.94 1.17 3.85 2.41 5.75 3.66.87 9.69 1.64 19.41 1.73 29.15-3.16-10.77-5.42-21.78-7.48-32.81Zm-34.15 7.59c7.25-23.76 15.25-48.08 31.44-67.47-2.7 8.51-8.13 15.8-11.42 24.07-5.25 13.63-10.38 27.77-10.27 42.59.93 5.97-2.75 10.91-5.21 15.96-1.66-4.97-4.58-9.84-4.54-15.15Zm425.1-31.91c3.23 9.41 3.97 19.76 1.98 29.51-1.38 5.44-3.69 11.27-8.69 14.35-5.22 2.56-10.82-.22-14.2-4.25-6.04-7.23-10.4-15.99-12.23-25.25 6.94 4.77 15.42 14.15 24.62 9.69 7.93-5.33 7.28-15.78 8.52-24.05ZM90.13 288.53c-.575.86-.618 1.339-.42 1.562.197.223.636.19 1.024.024.776-.331 1.351-1.191-.604-1.586Zm438.51-41.06c3.38 6.34 8.63 12.29 8.86 19.78.52 6.74.69 13.51.89 20.27-3.39-6.86-6.55-13.84-9.31-20.97-.76-6.33-.43-12.72-.44-19.08Zm-392.2 21.64c-1.32-13.02-.12-26.38 4.8-38.56.03 8.11-.2 16.23.18 24.35 4.95-5.87 8.03-12.93 11.3-19.79-3.77 11.8-6.37 25.58-16.28 34Zm373.2-43.37c5.78 10.18 7.98 22.06 6.86 33.67-.54 4.03-3.48 7.58-7.36 8.82-3.78 1.43-7.81-.56-11.05-2.37-8.54-5.5-14.11-14.34-17.54-23.72 6.07 4.18 13.41 10.26 21.28 6.72 10.21-3.33 7.78-14.96 7.81-23.12Zm-379.04-.11c5.43-8.04 9.36-17.24 16.5-24.02-6.64 14.42-9.52 30.13-12.9 45.53-1 5.61-1.07 11.34-1.45 17.03-.55-.2-1.65-.58-2.2-.78-1-6.56-1.99-13.12-2.98-19.67-4.65 6.86-8.75 14.07-13.52 20.86 2.83-13.95 8.84-27.05 16.55-38.95Zm390.65-18.74c5.61 1.77 11.11 3.91 16.59 6.06.09 6.98-.12 13.99.53 20.95 1.07 7.94 4.77 15.05 7.58 22.44-8.11-8.9-13.53-19.74-18.99-30.34-3.08-5.96-4.53-12.56-5.71-19.11Zm-13.28-4.3c3.83 3.82 8.71 6.76 11.97 11.13 1.94 9.65 4.28 19.2 6.67 28.75-3.61-5.98-7.12-12.09-11.79-17.31-2.08-2.82-5.01-5.22-6.15-8.64-.53-4.63-.65-9.28-.7-13.93Zm-11.53-1.16c7.11 9.46 12.84 21.57 9.65 33.62-2.04 6.28-9.96 7.84-15.52 5.53-10.59-4.34-18.48-13.26-24.67-22.61 8.5 3.49 18.83 9.9 27.97 4.89 6.69-4.88 2.73-14.58 2.57-21.43Zm63.67 20a159.298 159.298 0 0 0 3.511 5.424 402.906 402.906 0 0 0 3.669 5.326c-.51-4.64-2.8-8.78-7.18-10.75Zm-80.69-46.96c8.59 8.96 14 20.96 14.34 33.41-.63 4.91-5.82 8.47-10.75 7.15-13.93-2.23-24.59-12.34-34.42-21.73 7.53 2.82 15.09 6.44 23.29 6.39 5.75-.16 11.51-5.55 9.95-11.69-.37-4.58-1.62-9.02-2.41-13.53Zm10.46-9.27c6.49 1.79 13.94 2.26 19.37 6.55 4.17 6.89 4.82 15.63 9.95 22.11 3.62 6.19 9.99 9.76 15.1 14.53-9.65-2.03-17.39-8.75-23.84-15.87-7.87-8.28-14.77-17.49-20.58-27.32Zm-27.86-11.47c6.21 5.75 11.57 12.72 14.47 20.71.36 4.8 2 10.62-1.22 14.83-2.22 3.19-6.57 3.84-10.16 3.56-11.58-1.51-22.09-7.59-30.84-15.08 8.82.72 18.43 2.92 26.42-2.06 7.38-5.62 3.77-14.85 1.33-21.96Zm-331.6 20.65c4.21-6.05 7.79-12.49 11.69-18.73-2.53 13.3-7.22 26.75-16.16 37.15-1.31-6.45.63-13.17 4.47-18.42ZM240.55 30.62c5.95-8.44 9.02-18.45 14.35-27.24 2.24 9.94 2.29 20.19-.53 29.99 5.92-3.29 11.76-6.75 17.12-10.91 3.97-3.88 7.09-8.6 11.41-12.14-1.09 8.6-3.74 16.88-6.02 25.22 13.06-.08 26.11.67 39.13 1.66 4.17.41 8.2-.99 12.27-1.63-6.58 9.46-17.11 14.68-25.77 21.89-11.01 8.73-24.19 13.99-37.2 18.93-8.9 3.51-18.63 3.67-27.76 6.29 15.27 3.16 32.36.14 46.13 8.68 6.04 5.36 9.87 13.95 7.8 22.04-3.94 12.03-14.93 19.71-25.46 25.67-7.24 3.99-14.2 8.68-22.09 11.29 8.99-8.82 19.51-16.31 26.53-26.95 3.68-5.6 3.2-14.25-2.81-18.04-3.89-1.68-8.6-2-12.51-.27-8.06 3.36-14.13 9.8-21.04 14.9-1.32-2.93-.37-7.58-3.4-9.75-2.74-2.01-5.91.4-8.64 1.25 2.39 1.55 5.88 2.27 7.57 4.86 2.36 4.02.62 9.54-2.89 12.3-4.65 2.01-10.24.72-14.69 3.39-9.83 6.29-16.24 17.04-27.05 21.94-6.29 3.34-14.62 3.81-20.54-.51-3.02-2.61.74-5.68 1.45-8.46.04-3.05-.91-6.03-1.43-9.02-5.69 10.82-13.96 20.07-19.36 31.06-3.57 6.5-5.57 13.7-9.01 20.25 1.84-10.7 5.17-21.1 8.85-31.29 3.7-10.03 11.54-17.85 19.74-24.4 3.68 5.31 8.44 10.34 15.3 11.08-2.37-4.81-5.39-10.54-1.48-15.46 2.52 3.61 6.48 5.6 10.21 7.72 7.36-10.04 12.59-21.88 13.85-34.34.41-4.18-1.78-9.21-6.44-9.7-12.39-1.47-25.34-1.39-36.94-6.68-.75.69-1.51 1.38-2.27 2.06.33 3.48.78 6.94 1.24 10.41-4.35-5.49-7.79-11.6-10.89-17.84-1.9 3.95-1.73 8.31-.85 12.5-4.61-4.66-7.77-10.45-8-17.14-1.62-.8-3.25-1.59-4.87-2.38.35 15.77 8.46 30 16.98 42.77-11.43-8.09-20.32-19.47-25.83-32.3-2.65-9.34-3.75-19.04-6.01-28.47 17.17-9.68 34.55-21.92 54.93-22.69-.04.52-.14 1.58-.18 2.1-5.01 1.61-12.87 2.15-13.35 8.87-1.07 5.23 5.52 7.47 9.58 5.48 4.61-2.48 8.81-5.62 13.03-8.69-.45 3.1-.89 6.21-1.08 9.34 11.92-3.02 24-5.68 36.4-5.22 9.36 1.1 17.03-5.75 22.52-12.42Zm234.71 129.83c4.39 2.78 9.21 4.93 13.4 8.02 3.23 5.36 5.85 11.07 8.43 16.77-4.13-2.97-8.17-6.05-12.2-9.14-5.82-3.2-6.97-10.19-9.63-15.65Zm-356.13-13.37c6.63-9.2 16.5-15.28 25.94-21.23-1.92 3.75-4.09 7.41-5.35 11.46-1.19 7.5.88 15.31-1.87 22.58-2.3 5.76-6.53 10.4-10.37 15.17-4.76-3.15-6.79-8.67-8.74-13.77-1.75-4.51-2.36-9.96.39-14.21Zm318.52-17.03c8.77 6.35 16.43 14.97 20.03 25.31 3.22 8.13-4.3 18.97-13.51 16.4-11.32-.91-21.11-7.18-29.67-14.16 6.45.83 12.94 1.46 19.47 1.28 4.54-.2 9.39-2.97 10.25-7.75 1.63-7.78-3.35-14.52-6.57-21.08Zm-185.71 18.94c8.52-5.5 17.54-10.16 26.41-15.06-7.79 10.09-18.96 16.71-28.48 24.95-3.9 3.32-5.35 8.4-7.81 12.71 1.21-8.16 2.72-17.45 9.88-22.6Zm-4.34-36.29c3.43-3.12 7.39-6.38 12.45-5.74 4.84-.17 8.43 4.3 9.45 8.65 1.28 4.37-1.46 8.64-3.91 12.02-7.98 9.69-18.86 16.4-27.16 25.78-3.57 4.54-5.83 9.93-8.57 14.98-.3-6.23 1.3-12.51 4.93-17.61 7.92-10.78 20.45-16.81 28.94-27.05 3.08-4.26 3.54-11.27-1.05-14.63-5.42-.92-10.18 1.93-15.08 3.6Zm-32.14 20.81c3.73-1.65 6.9.66 9.99 2.21-.76 3.82-1.6 7.64-2.55 11.43-.99-2.7-1.96-5.32-3.09-7.94-10.38 5.01-17.99 14.58-28.9 18.63a58.404 58.404 0 0 1-12.59 2.08c6.89-3.93 14.91-6.16 20.41-12.17 5.6-4.62 9.46-11.97 16.73-14.24Zm197.8-17.14c7.49 4.61 15.29 9.73 19.96 17.4 2.21 4.96 5.15 12.49.53 16.96-5.12 4.19-12.37 4.29-18.62 4.12-9.95-2.11-19-6.91-28.28-10.89 1.04-1.07 2.1-2.13 3.15-3.19-9.14 1.01-18.62 2.91-25.58 9.38 1.02-2.91 1.41-6.69 4.58-8.15 11.49-7.19 24.66 2.15 36.89-1.12 6.79-1.2 10.99-7.45 14.7-12.68-2.31-4.02-4.84-7.92-7.33-11.83Zm-243-26.22c10.28 1.35 21.19.56 30.82 4.98-2.37 5.42-7.7 8.34-12.16 11.83-17.48 12.76-33.26 27.8-46.75 44.7-.62-10.15-.06-21.36 7.32-29.18 8.51-8.89 18.22-16.79 24.96-27.23-2.12-.96-4.24-1.89-6.37-2.79.72-.77 1.45-1.54 2.18-2.31Zm308.14 58c-.22.695-.207 1.165.035 1.407.243.243.715.258 1.415.043.43-1.4-.05-1.89-1.45-1.45Zm-38.73-23.32c4.96 2.41 10.18 4.55 14.58 7.93 3.52 4.74 6.26 10.01 8.95 15.26-9.61-5.77-18.18-13.18-23.53-23.19Zm-117.28 3.54c8.6-1.23 16.24-5.49 23.9-9.28-5.97 5.1-12.66 9.48-20.07 12.15-11.1 4.39-24.18 5.71-32.7 14.9 1.68-4.66 4.18-9.39 8.61-11.97 5.97-4.14 13.46-4.11 20.26-5.8Zm20.7 6.76c7.32-2.08 14.99-1.55 22.48-1.02-11.48 3.84-23.87 4.33-34.88 9.66 3.93-3.11 7.51-7.06 12.4-8.64Zm41.57-32.99c9.83 4.56 22.29 8.83 26.29 20.05 2.01 6.63-3.5 12.76-9.56 14.27-11.24 2.58-23.12 2.18-34.14-1.18 7.31-3.51 15.92-5.19 21.54-11.48 3.05-3.65 4.38-8.91 2.86-13.48-2.09-2.93-4.62-5.48-6.99-8.18Zm-218.9 28.48c9.7-11.95 22.03-21.4 34.56-30.19-.67 3.88-1.27 8.6-4.84 11.03-9.54 6.87-18.17 14.99-25.05 24.56-1.61-1.75-3.16-3.56-4.67-5.4Zm118.29-42.09c5.16.04 10.47-.6 15.46 1.15 4.64 1.13 8.8 3.94 13.61 4.43 3.2-1.34 5.66-4.33 9.3-4.68 9.95-.62 20.73.41 29.42 5.71 2.28 1.53 4.9 4.26 3.65 7.23-2.26 8.26-9.29 13.75-16.46 17.69-12.94 7.75-28.31 9.38-43 11.16 4.83-4.95 12.21-4.96 17.92-8.35 5.38-2.64 9.42-7.31 12.65-12.25 1.56-3.73.92-7.93 1.02-11.89-12.66 15.41-28.97 28.58-47.82 35.5 8.21-9 15.64-20.27 14.13-33.1-2.2-4.92-6.47-8.55-9.88-12.6Zm-59.48 45.67c2.76-4.16 5.77-8.14 8.31-12.44.45 2.8.85 5.59 1.3 8.39-3.18 1.42-6.38 2.76-9.61 4.05Zm129.44-40.93c7.47 1.51 15.69 1.99 22.06 6.63 5.41 3.55 11.52 8.71 10.93 15.96-3.2 7.26-9.44 14.18-17.66 15.4-12.28 1.57-24.9 2.29-37.01-.81 7.79-4.02 16.32-7.1 22.51-13.6 4.06-3.68 6.85-9.07 6.01-14.71-1.3-3.59-4.49-5.99-6.84-8.87Zm-109.3 34.99c-3.66-3.93.28-8.66 3.01-11.77.54 2.57.47 5.51 2.12 7.67 2.15 1.63 5.11 1.44 7.67 1.96-3 3.55-9.59 7.44-12.8 2.14Zm10.05-15.54c4.83-3.97 11.22 2.74 8.35 7.34-1.48 3.1-5.51 3.66-8.18 5.04-.97-3.92-5.1-9.75-.17-12.38Zm147.49-18.08c6.15-.2 12.99-3.02 18.82.25 7.28 3.29 11.54 10.56 17.23 15.81 5.77 6 13.74 8.82 21.07 12.34-22.31-1.4-39.25-16.94-57.12-28.4Zm-16.78 2.2c4.72-.14 9.5-.13 14.15.73 6.16 4.11 12.44 8.2 17.99 13.14-10.86-4.25-24.01-4.58-32.14-13.87Zm-69.87-1.73a33.643 33.643 0 0 0 4.776 1.824c1.634.486 3.304.851 4.994 1.096-3.14-1.33-6.41-2.33-9.77-2.92Zm38.82-23.32c8.8 7.56 19.13 13.5 30.45 16.33 7.72 1.65 15.63 2.03 23.49 2.75-24.36 5.44-50.1-.33-71.83-11.96 6.1-2 12.22-4.05 17.89-7.12Zm-35.11 12.06c6.1-1.18 12.63-3.13 18.81-1.1 4.93 1.67 9.69 3.76 14.48 5.8-11.24-.08-22.65-.79-33.29-4.7Zm-55.94-2.82c5.1-1.48 10.03-4.44 15.47-4.35 7.25 1.13 14.17 3.81 21.4 5.15-6.77 1.41-13.61 2.68-20.53 3-5.56-.68-10.87-2.73-16.34-3.8Zm32.1-16.44c17.52 9.01 37.96 10.48 56.97 5.88-12.13 7.09-26.6 9.1-40.44 9.51-11.09.54-22.08-1.95-32.5-5.58 5.37-3.19 10.87-6.18 15.97-9.81Zm26.65-19.51c5.16-5.49 13.57-1.4 19.87-1.01 17.07 2.74 34.26 9.56 51.68 6.11-12.91 9.99-28.7 15.12-44.21 19.45-17.67 4.81-36.52 1.08-52.81-6.57 9.25-4.8 18.01-10.65 25.47-17.98ZM201.1 56.22c-3.86 1.52-7.48 3.57-11.27 5.26 5.41.78 10.66 2.58 16.1 3.08 4.51-1.47 8.28-4.82 12.36-7.25-5.59-1.17-11.51-3.11-17.19-1.09Zm-69.4.93c1.36 1.1 2.74 2.19 4.14 3.25-.08-.74-.25-2.24-.33-2.98l-3.81-.27Z" style="fill:#090909;fill-rule:nonzero" transform="matrix(-.517 .63483 .63933 .48563 251.329 486.537)"/><path d="M682.78 124.12c-22.292 24.133-67.708 38.187-118.5 44.375-53.112 6.471-112.07 4.227-156.62-5.062-29.175 16.647-49.98 32.826-72 52.938-9.416 8.6-24.738 21.282-37.656 33.656-6.459 6.187-12.309 12.303-16.5 17.719-2.652 3.426-4.504 6.529-5.563 9.156 28.406-23.235 55.695-49.548 87.062-72-.004-.033-.026-.061-.031-.094l.156-.031c14.585-10.43 30.053-20.006 46.938-28.063l.469-.219.5.094c22.033 4.655 50.079 6.938 79.75 6.844l.031-.094c.107.025.207.065.313.094 29.59-.113 60.777-2.59 89.219-7.438 28.542-4.865 54.336-12.141 72.938-21.688 16.449-8.441 27.043-18.53 29.5-30.188l-.006.001Zm.906 17.031a34.78 34.78 0 0 0-1.656.031c-2.474.114-4.751.535-6.594 1.313-5.334 5.361-12.412 10.189-20.812 14.5-19.052 9.777-45.048 17.071-73.781 21.969-26.941 4.592-56.234 7.069-84.375 7.437 1.541 1.286 2.948 2.802 4.156 4.344a34.579 34.579 0 0 1 3.125 4.75c.796 1.46 1.352 2.679 1.563 3.75 34.116.095 82.094-7.727 123.22-20.656 17.166-5.397 32.741-12.936 46.219-19.656 11.684-5.826 21.648-10.908 29.969-13.656-.039-.014-.054-.017-.094-.031a80.72 80.72 0 0 0-8.969-2.594c-3.847-.873-8.08-1.491-11.969-1.5l-.002-.001Zm-27.156 29.812c-8.463 3.797-17.514 7.457-27.094 10.469-44.552 14.007-96.818 22.083-131.72 20.656l.031-.719c-4.043.304-8.335.793-12.781 1.344a25.962 25.962 0 0 1 6.532 6.469c1.068 1.534 1.809 2.977 2.25 4.187.22.605.384 1.145.437 1.688.034.348.061.753-.094 1.187 36.805 1.584 128.2-6.058 184.41-40.375-6.178-2.615-16.247-4.628-21.969-4.906h-.002Zm-245.16 8.75c10.521 10.379 15.295 10.942 20.344 16.344l1.344 1.406-1.719.938c-.67.362-1.356.703-2.062 1 10.444 3.626 22.643 3.708 34.938 2.656 13.104-1.121 26.172-3.43 37.438-3.875-.2-.463-.223-.684-.532-1.25a32.158 32.158 0 0 0-2.875-4.344c-2.172-2.771-4.984-5.263-7.562-6.125-29.351.081-57.158-2.169-79.312-6.75h-.002Zm-3.031 1.219a273.64 273.64 0 0 0-12.906 6.781c10.994 10.384 23.387 12.546 32.375 8.906-4.222-3.624-9.394-5.516-19.469-15.688v.001Zm-15.625 8.344a306.527 306.527 0 0 0-12.188 7.375c.108.092.069.088.188.187.851.715 2.014 1.685 3.437 2.781 2.846 2.194 6.677 4.913 10.812 7.344 4.136 2.431 8.601 4.56 12.625 5.531 3.412.824 6.372.761 8.75-.343-2.395-4.237-6.247-10.226-8.094-12.812-5.281-1.917-10.599-5.241-15.531-10.062l.001-.001Zm246.22 8.281c-55.904 19.653-122 23.365-149.22 21.438l.063-.844c-6.337 1.465-12.886 2.296-19.406 2.594 1.863 2.803 4.011 5.768 5.593 8.875 50.362 3.065 123.86-3.053 183.31-24.375-5.024-3.294-13.806-7.75-20.344-7.625v-.063h.004Zm-261.03.812a362.394 362.394 0 0 0-11.344 7.688c.925 1.688 2.81 3.794 5.438 5.875 3.582 2.837 8.383 5.701 13.344 8.094 4.96 2.392 10.096 4.331 14.312 5.375 2.108.521 3.967.805 5.437.843.886.023 1.228-.18 1.75-.312-1.205-4.172-2.325-6.425-7.062-13.062a68.476 68.476 0 0 1-6.344-3.313c-4.288-2.52-8.177-5.313-11.094-7.562a115.5 115.5 0 0 1-3.563-2.844c-.477-.401-.606-.541-.875-.781l.001-.001Zm34.938 2.282c1.111 1.674 2.295 3.612 3.5 5.562.271.202.492.394.594.5.127.132.106.108.187.156 16.065 9.498 47.44 14.593 73.906 7.875-.037-.131-.036-.185-.093-.343-.324-.888-.968-2.153-1.907-3.5-1.866-2.681-4.915-5.713-9.031-7.563-5.088.639-10.274 1.269-15.531 1.719-13.844 1.184-27.89 1.03-39.812-4.25-3.706.76-7.703.718-11.812-.156h-.001Zm-48.781 7.187c-4.197 3.021-8.306 6.135-12.375 9.281.685 1.308 2.893 3.514 5.969 5.688 3.12 2.205 7.102 4.497 11.219 6.469 4.117 1.971 8.393 3.616 12.094 4.593 2.977.787 5.363.939 7.094.75-.543-3.551-2.033-8.901-4.469-12.125-4.96-2.423-9.745-5.27-13.469-8.218-2.655-2.103-4.814-4.216-6.063-6.438Zm55.469 3.75c.079.143.176.299.25.438l.625 1.156-1.094.781c-1.928 1.357-4.145 1.955-6.5 2.062a93.04 93.04 0 0 0 4.281 2.657c4.569 2.669 10.866 5.941 17.812 8.875 13.313 5.621 29.019 9.711 39.562 6.406-1.388-4.092-4.788-8.653-7.562-13.094-17.895.3-35.277-3.368-47.375-9.281h.001Zm-14.75 3.219c3.24 4.802 4.306 7.259 5.5 11.812l.281 1.031-.906.594c-1.272.853-2.829 1.046-4.625 1-1.796-.047-3.874-.381-6.125-.938a49.137 49.137 0 0 1-1.625-.437 99.108 99.108 0 0 0 3.938 3.031c4.394 3.204 9.869 6.742 15.625 10 10.844 6.138 22.736 10.996 30.312 11.094-.216-6.569-3.075-12.939-8.782-19.812a153.066 153.066 0 0 1-4.656-1.875c-7.088-2.993-13.479-6.298-18.156-9.031-2.339-1.367-4.248-2.601-5.625-3.563a22.976 22.976 0 0 1-1.656-1.25 6.457 6.457 0 0 1-.563-.531c-.113-.122-.223-.236-.343-.437-.166-.037-.335-.054-.5-.094a32.644 32.644 0 0 1-2.094-.594Zm220.75 3.812c-51.322 12.825-107.06 16.401-148.22 14.062.226.645.415 1.284.563 1.938l.281 1.25-1.188.5c-4.251 1.674-9.098 2.143-14.219 1.812 7.276 2.248 16.366 4.001 26.594 5.188 16.661 1.933 36.358 2.444 56.375 1.469 38.811-1.891 78.712-9.453 100-22.031-1.617-.526-3.956-1.121-6.531-1.688-5.299-1.167-11.49-2.204-13.656-2.437v-.063h.001Zm-276.25.344a610.81 610.81 0 0 0-10.906 8.75c4.527 5.296 10.71 9.269 17.844 12.406l.344-.219c.109.167.207.333.312.5 5.116 2.197 10.69 3.994 16.469 5.563.102-1.895.305-3.743.094-5.344-.285-2.161-1.18-4.454-3.969-7.781-.625-.284-1.253-.577-1.875-.875-4.253-2.036-8.356-4.386-11.656-6.719-3.036-2.146-5.396-4.168-6.656-6.281h-.001Zm39.094 5.688c1.818 3.9 2.738 8.283 3 11.156l.094 1.187-1.125.375c-2.713.899-6.2.451-10.156-.594-.022-.006-.041-.025-.063-.031 9.116 10.038 20.28 15.438 31.188 19.938 11.255 4.643 22.221 8.321 30.031 15.469.502-2.774.053-5.66-.906-8.625-1.17-3.616-3.007-7.216-4.469-10.5-6.601-2.137-13.808-5.641-20.625-9.5-5.86-3.317-11.377-6.908-15.875-10.188-4.217-3.074-7.492-5.816-9.375-7.969-.575-.23-1.139-.473-1.719-.718Zm-52.312 4.968c-3.02 2.498-5.991 5.035-8.969 7.563 9.169 9.497 19.003 18.698 31.656 19.062.063-.196.01-.081.031-.5.044-.867-.035-2.1-.312-3.563-.49-2.583-1.593-5.877-3.594-9.281-7.394-3.276-13.912-7.52-18.812-13.281Zm107.5 4.438c2.498 3.545 4.352 7.077 5.469 10.656 14.607 7.514 48.132 12.115 81.688 13.281 32.37 1.125 64.878-.903 81.094-5.688-3.178-3.75-9.851-8.378-18.75-9.406l.031-.187c-15.063 2.615-31.221 4.314-47.219 5.093-20.16.983-40.002.52-56.875-1.437-16.858-1.956-30.73-5.345-39.188-10.438-2.09-.558-4.181-1.18-6.25-1.875v.001Zm-68.938.906c1.032 1.894 1.567 3.622 1.781 5.25.366 2.774-.093 5.118-.093 7.75v1.938l-1.875-.469a191.105 191.105 0 0 1-6.563-1.844c11.546 9.642 20.185 14.346 27.562 17.844 7.814 3.705 14.384 6.204 21.344 11.562.026-.303.063-.221.031-.625-.107-1.397-.497-3.258-1.125-5.281-1.214-3.912-3.298-8.427-5.719-11.719-12.201-5.045-25.202-11.429-35.219-24.375-.04-.015-.084-.016-.125-.031h.001Zm-49.844 4.156a2106.962 2106.962 0 0 0-13.375 11.531c1.281 1.628 3.475 3.75 6.25 5.907 3.509 2.727 7.889 5.567 12.469 8 4.58 2.432 9.357 4.461 13.562 5.531 3.695.939 6.746.928 8.969.25-.104-.319-.165-.592-.344-1.031-.567-1.39-1.448-3.233-2.437-5.125a113.16 113.16 0 0 0-3.032-5.407c-.943-1.577-1.824-2.883-2.093-3.187-7.577-3.906-14.026-10.298-19.969-16.469Zm34.406 5.532a31.193 31.193 0 0 1 2.219 6.968c.314 1.658.435 3.099.375 4.282-.06 1.182-.056 2.087-.969 3l-.437.437h-.625c-1.655.014-3.253-.135-4.813-.375 5.13 7.857 14.463 13.174 23.938 18.031 9.551 4.896 19.138 9.271 24.25 16.062.045-.201.087-.266.125-.5.273-1.678.355-4.17.063-6.875-.585-5.409-2.64-11.724-6.813-15.438l.625-.719a212.2 212.2 0 0 1-2.969-1.375c-8.618-4.086-19.095-9.942-33.594-22.969-.466-.171-.914-.355-1.375-.531v.002Zm90.719 3.781c.292 1.734.435 3.481.375 5.25l-.062 1.344-1.313.093c-1.554.116-3.239.047-5-.187 40.905 19.541 87.424 21.745 137.12 15.25-.448-1.301-1.192-2.572-2.594-3.875-1.913-1.78-4.745-3.555-8.344-5.281l.094-.219c-12.46.578-26.022.659-39.594.187-32.25-1.121-64.133-5.114-80.688-12.562h.006Zm-140.78 4.187a4030.19 4030.19 0 0 1-12.188 10.531c4.229 3.842 10.233 8.338 16.312 11.781 6.308 3.573 12.69 5.828 16.812 5.563.135-.407.251-1.029.094-2.094-.219-1.479-.812-3.375-1.594-5.281-1.51-3.68-3.775-7.473-4.75-8.719-2.9-1.768-5.634-3.63-8-5.469-2.839-2.206-5.145-4.334-6.688-6.312h.002Zm131.91 4.25c.827 1.816 1.64 3.736 2.281 5.719.817 2.526 1.348 5.194 1.25 7.875 21.235 14.217 58.015 19.195 80.969 16.5-.825-1.717-1.647-3.244-3.031-4.656-1.89-1.929-4.921-3.949-10.531-6.563l.062-.156c-24.991-2.057-48.792-7.833-71-18.719Zm-91.344.844a113.022 113.022 0 0 1 2.844 5.063c1.016 1.945 1.932 3.86 2.562 5.406.315.772.572 1.45.719 2.062.073.306.124.59.125.938.001.347-.001.876-.531 1.406l-.188.187-.25.094c-3.285 1.547-7.453 1.281-12 .125-.372-.095-.747-.205-1.125-.312 11.748 12.295 30.726 23.088 47.625 27.469-.691-6.006-4.121-13.908-7.687-17.219l.656-.719c-1.637-.844-3.252-1.667-4.937-2.531-10.425-5.344-21.298-11.391-26.562-21.594-.417-.123-.841-.237-1.25-.375h-.001Zm65.062 3.594a46.267 46.267 0 0 1 2.313 4.812c7.957 8.897 24.193 18.722 41.062 25.5 16.279 6.542 33.181 10.156 43.5 8.219-.208-.853-.58-2.005-1.469-3.469-1.211-1.992-3.06-4.31-5.313-6.625-18.005-2.034-36.978-7.192-50.75-16-.152.597-.327 1.19-.562 1.782l-.875 2.187-1.625-1.719c-6.23-6.64-15.785-10.457-26.281-14.688v.001Zm-120.09 3.812c-1.658 1.423-3.308 2.84-4.969 4.25 2.812 3.348 5.762 7.866 9.313 11.906 3.689 4.199 7.962 7.687 13.062 8.938 1-3.006.26-7.561-3.063-14.312-5.438-3.346-10.547-7.294-14.344-10.781l.001-.001Zm34.531 2.344c.734 1.404 1.474 2.913 2.125 4.5.839 2.044 1.534 4.12 1.813 6 .248 1.676.228 3.337-.719 4.625 6.621 8.332 15.382 13.354 23.969 17.969 7.808 4.197 15.349 8.16 20.938 14.031.064-1.986.133-3.702.125-6.187-.013-3.848-.365-7.808-1-9.375-15.555-6.309-30.918-16.666-40.25-28.156l.125-.094a79.505 79.505 0 0 1-7.125-3.313h-.001Zm-41.812 3.844c-2.381 2.011-4.762 4.024-7.156 6 5.098 5.816 10.358 6.973 16 10.188.013-.503-.044-1.064-.188-1.75-.292-1.401-.921-3.181-1.562-5.25-2.719-3.399-5.054-6.746-7.094-9.188Zm131.81 1.156c.321 1.319.539 2.572.625 3.688.134 1.735.146 3.265-1 4.468l-.969 1-1.094-.906c-4.12-3.476-8.06-5.711-12.25-7.75 19.987 17.911 59.242 41.121 86.125 44.062.048-.564-.01-1.228-.187-2.031-.309-1.398-.967-3.056-1.875-4.719-1.765-3.23-4.431-6.49-6.813-8.281-7.855-1.548-16.346-4.229-24.719-7.594-14.598-5.865-28.681-13.799-37.844-21.938l.001.001Zm-14.781 4.719c1.003 2.738 1.592 5.57 1.875 8.187.303 2.804.26 5.341-.031 7.344 9.369 8.532 23.02 26.538 50.062 23.469-.044-.086-.012-.066-.063-.156-.469-.835-1.174-1.892-2.031-3-1.709-2.209-3.999-4.699-6.219-6.531-14.74-7.277-32.268-19.006-43.594-29.312l.001-.001Zm-90.938 1.25c1.112 2.757 1.831 5.278 2.063 7.5 12.843 12.994 30.087 25.964 49.812 29.5-.419-.664-.768-1.226-1.282-2.031a611.12 611.12 0 0 0-5.281-8.157c-1.276-.688-2.532-1.357-3.844-2.062-8.899-4.783-18.406-10.189-25.531-19.562-4.736.043-10.322-2.162-15.938-5.188h.001Zm73.656 6.281c3.325 5.018 5.625 11.93 5.625 17.5v1.875l-1.844-.406c-3.598-.827-7.296-1.959-11-3.313.235 1.233.368 2.601.438 4.032 3.222 2.447 10.501 6.814 18.969 10.531 8.215 3.606 17.512 6.471 25.344 6.812-1.33-2.636-2.625-5.379-3.844-7.937-1.588-3.333-3.246-6.209-4.813-7.563l.125-.125c-4.374-3.678-7.946-7.389-10.844-10.156a3.253 3.253 0 0 1-.562.719c-.342.319-.862.625-1.469.625h-.875l-.437-.75c-2.614-4.546-8.198-8.233-14.812-11.844h-.001Z" style="fill-rule:nonzero;stroke:#fff;stroke-width:.98px" transform="scale(-1.021 1.021) rotate(7.801 918.475 -5679.903)"/><path d="M682.78 124.12c-22.292 24.133-67.708 38.187-118.5 44.375-53.112 6.471-112.07 4.227-156.62-5.062-29.175 16.647-49.98 32.826-72 52.938-9.416 8.6-24.738 21.282-37.656 33.656-6.459 6.187-12.309 12.303-16.5 17.719-2.652 3.426-4.504 6.529-5.563 9.156 28.406-23.235 55.695-49.548 87.062-72-.004-.033-.026-.061-.031-.094l.156-.031c14.585-10.43 30.053-20.006 46.938-28.063l.469-.219.5.094c22.033 4.655 50.079 6.938 79.75 6.844l.031-.094c.107.025.207.065.313.094 29.59-.113 60.777-2.59 89.219-7.438 28.542-4.865 54.336-12.141 72.938-21.688 16.449-8.441 27.043-18.53 29.5-30.188l-.006.001Zm.906 17.031a34.78 34.78 0 0 0-1.656.031c-2.474.114-4.751.535-6.594 1.313-5.334 5.361-12.412 10.189-20.812 14.5-19.052 9.777-45.048 17.071-73.781 21.969-26.941 4.592-56.234 7.069-84.375 7.437 1.541 1.286 2.948 2.802 4.156 4.344a34.579 34.579 0 0 1 3.125 4.75c.796 1.46 1.352 2.679 1.563 3.75 34.116.095 82.094-7.727 123.22-20.656 17.166-5.397 32.741-12.936 46.219-19.656 11.684-5.826 21.648-10.908 29.969-13.656-.039-.014-.054-.017-.094-.031a80.72 80.72 0 0 0-8.969-2.594c-3.847-.873-8.08-1.491-11.969-1.5l-.002-.001Zm-27.156 29.812c-8.463 3.797-17.514 7.457-27.094 10.469-44.552 14.007-96.818 22.083-131.72 20.656l.031-.719c-4.043.304-8.335.793-12.781 1.344a25.962 25.962 0 0 1 6.532 6.469c1.068 1.534 1.809 2.977 2.25 4.187.22.605.384 1.145.437 1.688.034.348.061.753-.094 1.187 36.805 1.584 128.2-6.058 184.41-40.375-6.178-2.615-16.247-4.628-21.969-4.906h-.002Zm-245.16 8.75c10.521 10.379 15.295 10.942 20.344 16.344l1.344 1.406-1.719.938c-.67.362-1.356.703-2.062 1 10.444 3.626 22.643 3.708 34.938 2.656 13.104-1.121 26.172-3.43 37.438-3.875-.2-.463-.223-.684-.532-1.25a32.158 32.158 0 0 0-2.875-4.344c-2.172-2.771-4.984-5.263-7.562-6.125-29.351.081-57.158-2.169-79.312-6.75h-.002Zm-3.031 1.219a273.64 273.64 0 0 0-12.906 6.781c10.994 10.384 23.387 12.546 32.375 8.906-4.222-3.624-9.394-5.516-19.469-15.688v.001Zm-15.625 8.344a306.527 306.527 0 0 0-12.188 7.375c.108.092.069.088.188.187.851.715 2.014 1.685 3.437 2.781 2.846 2.194 6.677 4.913 10.812 7.344 4.136 2.431 8.601 4.56 12.625 5.531 3.412.824 6.372.761 8.75-.343-2.395-4.237-6.247-10.226-8.094-12.812-5.281-1.917-10.599-5.241-15.531-10.062l.001-.001Zm246.22 8.281c-55.904 19.653-122 23.365-149.22 21.438l.063-.844c-6.337 1.465-12.886 2.296-19.406 2.594 1.863 2.803 4.011 5.768 5.593 8.875 50.362 3.065 123.86-3.053 183.31-24.375-5.024-3.294-13.806-7.75-20.344-7.625v-.063h.004Zm-261.03.812a362.394 362.394 0 0 0-11.344 7.688c.925 1.688 2.81 3.794 5.438 5.875 3.582 2.837 8.383 5.701 13.344 8.094 4.96 2.392 10.096 4.331 14.312 5.375 2.108.521 3.967.805 5.437.843.886.023 1.228-.18 1.75-.312-1.205-4.172-2.325-6.425-7.062-13.062a68.476 68.476 0 0 1-6.344-3.313c-4.288-2.52-8.177-5.313-11.094-7.562a115.5 115.5 0 0 1-3.563-2.844c-.477-.401-.606-.541-.875-.781l.001-.001Zm34.938 2.282c1.111 1.674 2.295 3.612 3.5 5.562.271.202.492.394.594.5.127.132.106.108.187.156 16.065 9.498 47.44 14.593 73.906 7.875-.037-.131-.036-.185-.093-.343-.324-.888-.968-2.153-1.907-3.5-1.866-2.681-4.915-5.713-9.031-7.563-5.088.639-10.274 1.269-15.531 1.719-13.844 1.184-27.89 1.03-39.812-4.25-3.706.76-7.703.718-11.812-.156h-.001Zm-48.781 7.187c-4.197 3.021-8.306 6.135-12.375 9.281.685 1.308 2.893 3.514 5.969 5.688 3.12 2.205 7.102 4.497 11.219 6.469 4.117 1.971 8.393 3.616 12.094 4.593 2.977.787 5.363.939 7.094.75-.543-3.551-2.033-8.901-4.469-12.125-4.96-2.423-9.745-5.27-13.469-8.218-2.655-2.103-4.814-4.216-6.063-6.438Zm55.469 3.75c.079.143.176.299.25.438l.625 1.156-1.094.781c-1.928 1.357-4.145 1.955-6.5 2.062a93.04 93.04 0 0 0 4.281 2.657c4.569 2.669 10.866 5.941 17.812 8.875 13.313 5.621 29.019 9.711 39.562 6.406-1.388-4.092-4.788-8.653-7.562-13.094-17.895.3-35.277-3.368-47.375-9.281h.001Zm-14.75 3.219c3.24 4.802 4.306 7.259 5.5 11.812l.281 1.031-.906.594c-1.272.853-2.829 1.046-4.625 1-1.796-.047-3.874-.381-6.125-.938a49.137 49.137 0 0 1-1.625-.437 99.108 99.108 0 0 0 3.938 3.031c4.394 3.204 9.869 6.742 15.625 10 10.844 6.138 22.736 10.996 30.312 11.094-.216-6.569-3.075-12.939-8.782-19.812a153.066 153.066 0 0 1-4.656-1.875c-7.088-2.993-13.479-6.298-18.156-9.031-2.339-1.367-4.248-2.601-5.625-3.563a22.976 22.976 0 0 1-1.656-1.25 6.457 6.457 0 0 1-.563-.531c-.113-.122-.223-.236-.343-.437-.166-.037-.335-.054-.5-.094a32.644 32.644 0 0 1-2.094-.594Zm220.75 3.812c-51.322 12.825-107.06 16.401-148.22 14.062.226.645.415 1.284.563 1.938l.281 1.25-1.188.5c-4.251 1.674-9.098 2.143-14.219 1.812 7.276 2.248 16.366 4.001 26.594 5.188 16.661 1.933 36.358 2.444 56.375 1.469 38.811-1.891 78.712-9.453 100-22.031-1.617-.526-3.956-1.121-6.531-1.688-5.299-1.167-11.49-2.204-13.656-2.437v-.063h.001Zm-276.25.344a610.81 610.81 0 0 0-10.906 8.75c4.527 5.296 10.71 9.269 17.844 12.406l.344-.219c.109.167.207.333.312.5 5.116 2.197 10.69 3.994 16.469 5.563.102-1.895.305-3.743.094-5.344-.285-2.161-1.18-4.454-3.969-7.781-.625-.284-1.253-.577-1.875-.875-4.253-2.036-8.356-4.386-11.656-6.719-3.036-2.146-5.396-4.168-6.656-6.281h-.001Zm39.094 5.688c1.818 3.9 2.738 8.283 3 11.156l.094 1.187-1.125.375c-2.713.899-6.2.451-10.156-.594-.022-.006-.041-.025-.063-.031 9.116 10.038 20.28 15.438 31.188 19.938 11.255 4.643 22.221 8.321 30.031 15.469.502-2.774.053-5.66-.906-8.625-1.17-3.616-3.007-7.216-4.469-10.5-6.601-2.137-13.808-5.641-20.625-9.5-5.86-3.317-11.377-6.908-15.875-10.188-4.217-3.074-7.492-5.816-9.375-7.969-.575-.23-1.139-.473-1.719-.718Zm-52.312 4.968c-3.02 2.498-5.991 5.035-8.969 7.563 9.169 9.497 19.003 18.698 31.656 19.062.063-.196.01-.081.031-.5.044-.867-.035-2.1-.312-3.563-.49-2.583-1.593-5.877-3.594-9.281-7.394-3.276-13.912-7.52-18.812-13.281Zm107.5 4.438c2.498 3.545 4.352 7.077 5.469 10.656 14.607 7.514 48.132 12.115 81.688 13.281 32.37 1.125 64.878-.903 81.094-5.688-3.178-3.75-9.851-8.378-18.75-9.406l.031-.187c-15.063 2.615-31.221 4.314-47.219 5.093-20.16.983-40.002.52-56.875-1.437-16.858-1.956-30.73-5.345-39.188-10.438-2.09-.558-4.181-1.18-6.25-1.875v.001Zm-68.938.906c1.032 1.894 1.567 3.622 1.781 5.25.366 2.774-.093 5.118-.093 7.75v1.938l-1.875-.469a191.105 191.105 0 0 1-6.563-1.844c11.546 9.642 20.185 14.346 27.562 17.844 7.814 3.705 14.384 6.204 21.344 11.562.026-.303.063-.221.031-.625-.107-1.397-.497-3.258-1.125-5.281-1.214-3.912-3.298-8.427-5.719-11.719-12.201-5.045-25.202-11.429-35.219-24.375-.04-.015-.084-.016-.125-.031h.001Zm-49.844 4.156a2106.962 2106.962 0 0 0-13.375 11.531c1.281 1.628 3.475 3.75 6.25 5.907 3.509 2.727 7.889 5.567 12.469 8 4.58 2.432 9.357 4.461 13.562 5.531 3.695.939 6.746.928 8.969.25-.104-.319-.165-.592-.344-1.031-.567-1.39-1.448-3.233-2.437-5.125a113.16 113.16 0 0 0-3.032-5.407c-.943-1.577-1.824-2.883-2.093-3.187-7.577-3.906-14.026-10.298-19.969-16.469Zm34.406 5.532a31.193 31.193 0 0 1 2.219 6.968c.314 1.658.435 3.099.375 4.282-.06 1.182-.056 2.087-.969 3l-.437.437h-.625c-1.655.014-3.253-.135-4.813-.375 5.13 7.857 14.463 13.174 23.938 18.031 9.551 4.896 19.138 9.271 24.25 16.062.045-.201.087-.266.125-.5.273-1.678.355-4.17.063-6.875-.585-5.409-2.64-11.724-6.813-15.438l.625-.719a212.2 212.2 0 0 1-2.969-1.375c-8.618-4.086-19.095-9.942-33.594-22.969-.466-.171-.914-.355-1.375-.531v.002Zm90.719 3.781c.292 1.734.435 3.481.375 5.25l-.062 1.344-1.313.093c-1.554.116-3.239.047-5-.187 40.905 19.541 87.424 21.745 137.12 15.25-.448-1.301-1.192-2.572-2.594-3.875-1.913-1.78-4.745-3.555-8.344-5.281l.094-.219c-12.46.578-26.022.659-39.594.187-32.25-1.121-64.133-5.114-80.688-12.562h.006Zm-140.78 4.187a4030.19 4030.19 0 0 1-12.188 10.531c4.229 3.842 10.233 8.338 16.312 11.781 6.308 3.573 12.69 5.828 16.812 5.563.135-.407.251-1.029.094-2.094-.219-1.479-.812-3.375-1.594-5.281-1.51-3.68-3.775-7.473-4.75-8.719-2.9-1.768-5.634-3.63-8-5.469-2.839-2.206-5.145-4.334-6.688-6.312h.002Zm131.91 4.25c.827 1.816 1.64 3.736 2.281 5.719.817 2.526 1.348 5.194 1.25 7.875 21.235 14.217 58.015 19.195 80.969 16.5-.825-1.717-1.647-3.244-3.031-4.656-1.89-1.929-4.921-3.949-10.531-6.563l.062-.156c-24.991-2.057-48.792-7.833-71-18.719Zm-91.344.844a113.022 113.022 0 0 1 2.844 5.063c1.016 1.945 1.932 3.86 2.562 5.406.315.772.572 1.45.719 2.062.073.306.124.59.125.938.001.347-.001.876-.531 1.406l-.188.187-.25.094c-3.285 1.547-7.453 1.281-12 .125-.372-.095-.747-.205-1.125-.312 11.748 12.295 30.726 23.088 47.625 27.469-.691-6.006-4.121-13.908-7.687-17.219l.656-.719c-1.637-.844-3.252-1.667-4.937-2.531-10.425-5.344-21.298-11.391-26.562-21.594-.417-.123-.841-.237-1.25-.375h-.001Zm65.062 3.594a46.267 46.267 0 0 1 2.313 4.812c7.957 8.897 24.193 18.722 41.062 25.5 16.279 6.542 33.181 10.156 43.5 8.219-.208-.853-.58-2.005-1.469-3.469-1.211-1.992-3.06-4.31-5.313-6.625-18.005-2.034-36.978-7.192-50.75-16-.152.597-.327 1.19-.562 1.782l-.875 2.187-1.625-1.719c-6.23-6.64-15.785-10.457-26.281-14.688v.001Zm-120.09 3.812c-1.658 1.423-3.308 2.84-4.969 4.25 2.812 3.348 5.762 7.866 9.313 11.906 3.689 4.199 7.962 7.687 13.062 8.938 1-3.006.26-7.561-3.063-14.312-5.438-3.346-10.547-7.294-14.344-10.781l.001-.001Zm34.531 2.344c.734 1.404 1.474 2.913 2.125 4.5.839 2.044 1.534 4.12 1.813 6 .248 1.676.228 3.337-.719 4.625 6.621 8.332 15.382 13.354 23.969 17.969 7.808 4.197 15.349 8.16 20.938 14.031.064-1.986.133-3.702.125-6.187-.013-3.848-.365-7.808-1-9.375-15.555-6.309-30.918-16.666-40.25-28.156l.125-.094a79.505 79.505 0 0 1-7.125-3.313h-.001Zm-41.812 3.844c-2.381 2.011-4.762 4.024-7.156 6 5.098 5.816 10.358 6.973 16 10.188.013-.503-.044-1.064-.188-1.75-.292-1.401-.921-3.181-1.562-5.25-2.719-3.399-5.054-6.746-7.094-9.188Zm131.81 1.156c.321 1.319.539 2.572.625 3.688.134 1.735.146 3.265-1 4.468l-.969 1-1.094-.906c-4.12-3.476-8.06-5.711-12.25-7.75 19.987 17.911 59.242 41.121 86.125 44.062.048-.564-.01-1.228-.187-2.031-.309-1.398-.967-3.056-1.875-4.719-1.765-3.23-4.431-6.49-6.813-8.281-7.855-1.548-16.346-4.229-24.719-7.594-14.598-5.865-28.681-13.799-37.844-21.938l.001.001Zm-14.781 4.719c1.003 2.738 1.592 5.57 1.875 8.187.303 2.804.26 5.341-.031 7.344 9.369 8.532 23.02 26.538 50.062 23.469-.044-.086-.012-.066-.063-.156-.469-.835-1.174-1.892-2.031-3-1.709-2.209-3.999-4.699-6.219-6.531-14.74-7.277-32.268-19.006-43.594-29.312l.001-.001Zm-90.938 1.25c1.112 2.757 1.831 5.278 2.063 7.5 12.843 12.994 30.087 25.964 49.812 29.5-.419-.664-.768-1.226-1.282-2.031a611.12 611.12 0 0 0-5.281-8.157c-1.276-.688-2.532-1.357-3.844-2.062-8.899-4.783-18.406-10.189-25.531-19.562-4.736.043-10.322-2.162-15.938-5.188h.001Zm73.656 6.281c3.325 5.018 5.625 11.93 5.625 17.5v1.875l-1.844-.406c-3.598-.827-7.296-1.959-11-3.313.235 1.233.368 2.601.438 4.032 3.222 2.447 10.501 6.814 18.969 10.531 8.215 3.606 17.512 6.471 25.344 6.812-1.33-2.636-2.625-5.379-3.844-7.937-1.588-3.333-3.246-6.209-4.813-7.563l.125-.125c-4.374-3.678-7.946-7.389-10.844-10.156a3.253 3.253 0 0 1-.562.719c-.342.319-.862.625-1.469.625h-.875l-.437-.75c-2.614-4.546-8.198-8.233-14.812-11.844h-.001Z" style="fill-rule:nonzero;stroke:#fff;stroke-width:.98px" transform="scale(-1.021 1.021) rotate(8.844 691.115 -5311.837)"/></svg>